<?xml version="1.0" encoding="utf-8"?>
<!-- Generator: Adobe Illustrator 23.1.0, SVG Export Plug-In . SVG Version: 6.00 Build 0)  -->
<svg version="1.1" id="Capa_1" xmlns="http://www.w3.org/2000/svg" xmlns:xlink="http://www.w3.org/1999/xlink" x="0px" y="0px"
	 viewBox="0 0 700 700" style="enable-background:new 0 0 700 700;" xml:space="preserve">
<style type="text/css">
	.st0{fill:#478881;}
	.st1{fill:#77CACB;}
	.st2{fill:#33515A;}
	.st3{fill:#43845B;}
	.st4{opacity:0.55;fill:#33515A;}
	.st5{opacity:0.48;fill:#478881;}
</style>
<g>
	<g>
		<g>
			<path class="st0" d="M344.6,515.6c0,0,57.8-37,142.1-44.8c84.3-7.8,142.1-18.4,142.1-18.4s-51.4,17.3-102.7,34.6
				C474.7,504.3,398,521.7,344.6,515.6z"/>
			<path class="st1" d="M347.9,477.2c0,0,51.9-55.3,136.6-89.1c84.7-33.8,102.7-34.6,140.6-54.5C625.1,333.6,475.4,463,347.9,477.2z
				"/>
			<path class="st2" d="M349.2,439c0,0,53.8-69.6,115.2-117.3c61.3-47.7,105.8-74.1,113.6-88.5C578,233.2,511,367.5,349.2,439z"/>
			<path class="st2" d="M343.3,527.2c0,0-35.4-25.9-140.5-32.5c-105.1-6.6-123.9-23.9-131-20c0,0,35.1,35.1,134.1,50.6
				C304.8,540.8,343.3,527.2,343.3,527.2z"/>
			<path class="st0" d="M346.9,491.6c-96.5,2.4-275.5-89.6-275.5-89.6s59.9,14.9,110.4,21.2C232.3,429.5,337.9,475.2,346.9,491.6z"
				/>
			<path class="st1" d="M348.8,457.4c-26.4-0.3-111-26.3-162.1-63.7c-51.1-37.3-93.9-58-93.9-58S244.7,370.1,348.8,457.4z"/>
			<path class="st0" d="M349.2,407.5C233.7,379.1,77.4,294.4,77.4,294.4S299.2,325.4,349.2,407.5z"/>
			<path class="st2" d="M347.3,357.6c-83-32.8-239.2-136.4-239.2-136.4S265.3,259.7,347.3,357.6z"/>
			<path class="st1" d="M154.7,150.2c0,0,72.4,77.5,189.2,163.8C343.9,314.1,347.9,267.9,154.7,150.2z"/>
			<path class="st2" d="M213.8,118.6c0,0,99.2,105.1,124.8,150.4c0,0-6-52.7-58.6-111.4c-9.3-10.4-19.8-19.7-31.5-27.2
				C237.4,123.3,223.9,116.7,213.8,118.6z"/>
			<path class="st2" d="M338.4,265.7c0,0-9.7-158-5.1-161.4C337.9,100.8,383,134.1,338.4,265.7z"/>
			<path class="st0" d="M341.8,293.7c0,0,41.8-100,50.6-151C392.4,142.7,424.2,222.6,341.8,293.7z"/>
			<path class="st0" d="M347.1,353.6c0,0,48.3-110.1,113-210.4C460,143.2,483.5,214.3,347.1,353.6z"/>
			<path class="st1" d="M349,396.3c69.8-40.2,116.1-155.3,124.5-180.2c8.4-24.9-5.6-58.7-5.6-58.7s8.5,32.2-2.8,55.1
				C457.7,227.1,347.6,384.9,349,396.3z"/>
		</g>
		<g>
			<g>
				<g>
					<path class="st2" d="M347.8,478.3c7.5-4.9,15-9.8,22.5-14.7l22.7-14.5c15.2-9.6,30.4-19,45.7-28.4
						c15.4-9.3,30.8-18.3,46.5-27.1l11.8-6.5l11.9-6.3c4-2.1,8-4,12.1-5.9c2-1,4.1-1.9,6.1-2.8l6.2-2.7l-6.1,2.7
						c-2,0.9-4.1,1.8-6.1,2.8c-4,2-8,4-12,6.1l-11.9,6.3l-11.7,6.5c-15.6,8.8-31,18-46.3,27.3c-15.3,9.3-30.6,18.7-45.8,28.2
						l-22.7,14.4C362.9,468.7,355.4,473.5,347.8,478.3z"/>
				</g>
				<g>
					<path class="st2" d="M363.5,474.9c10.1-4.2,20.2-8.6,30.2-13c10-4.4,20.1-8.9,30-13.5c19.9-9.2,39.7-18.7,59.2-28.8
						c9.8-5,19.5-10.1,29.1-15.4c9.6-5.3,19.1-10.8,28.5-16.5c9.3-5.8,18.6-11.7,27.4-18.2c8.8-6.5,17.5-13.3,25-21.3
						c-7.5,8-16.1,15-24.9,21.5c-8.8,6.5-18.1,12.5-27.4,18.3c-9.3,5.8-18.8,11.3-28.4,16.6c-9.6,5.3-19.3,10.5-29,15.5
						c-19.5,10-39.4,19.5-59.3,28.6c-10,4.6-20,9-30.1,13.4C383.8,466.5,373.7,470.8,363.5,474.9z"/>
				</g>
				<g>
					<path class="st2" d="M380,468c8.1-5.4,16.3-10.7,24.5-15.9c8.3-5.2,16.5-10.3,24.9-15.4c16.6-10.2,33.4-20.1,50.3-29.8l6.3-3.6
						l6.4-3.6l12.8-7.1c8.6-4.7,17.1-9.4,25.7-13.9c4.3-2.3,8.6-4.6,12.9-6.9l13-6.7c4.3-2.3,8.7-4.4,13-6.6l13.1-6.5l-13,6.7
						c-4.3,2.2-8.7,4.4-13,6.7l-13,6.8c-4.3,2.3-8.6,4.6-12.9,6.9c-8.6,4.6-17.1,9.3-25.6,14l-12.7,7.2l-6.4,3.6l-6.3,3.6
						c-16.9,9.6-33.7,19.5-50.4,29.6c-8.3,5-16.6,10.2-24.9,15.3C396.4,457.5,388.2,462.7,380,468z"/>
				</g>
			</g>
			<g>
				<g>
					<path class="st3" d="M354.5,436.8c9.7-7.6,19.3-15.2,28.8-23l14.2-11.7l14.2-11.8c18.8-15.8,37.3-31.9,55.6-48.2
						c18.4-16.3,36.3-33,54-50.1l13.2-12.9c4.4-4.3,8.6-8.7,13-13.1l6.5-6.5c2.2-2.2,4.2-4.4,6.4-6.7l12.7-13.3
						c-16.7,18-33.7,35.7-51.4,52.8c-17.7,17.1-35.6,33.9-53.9,50.2c-18.3,16.3-36.9,32.4-55.8,48.1
						C393,406.4,373.9,421.9,354.5,436.8z"/>
				</g>
				<g>
					<path class="st3" d="M349.4,437.8l23.5-21.1l23.6-20.9c15.7-13.9,31.5-27.8,47.3-41.7c15.8-13.8,31.7-27.6,47.7-41.2
						c8-6.8,16-13.6,24.1-20.3c4.1-3.3,8.1-6.6,12.3-9.9c2.1-1.6,4.1-3.2,6.2-4.8c1-0.8,2.1-1.6,3.2-2.3c1.1-0.8,2.2-1.5,3.3-2.1
						c-1.1,0.7-2.2,1.4-3.3,2.2c-1.1,0.8-2.1,1.5-3.2,2.3c-2.1,1.6-4.1,3.2-6.2,4.9c-4.1,3.3-8.1,6.6-12.2,10
						c-8.1,6.7-16.1,13.5-24,20.4c-15.9,13.7-31.8,27.5-47.6,41.3c-15.8,13.8-31.6,27.7-47.4,41.5L349.4,437.8z"/>
				</g>
				<g>
					<path class="st3" d="M376.2,426.1c8.8-5.7,17.3-11.8,25.8-17.9c8.5-6.1,16.9-12.4,25.2-18.8c16.6-12.8,32.7-26.1,48.3-40.1
						c7.8-7,15.5-14.1,22.9-21.5c7.4-7.4,14.7-14.9,21.7-22.7c14-15.6,27-32.1,38-49.9c-5.4,9-11.4,17.6-17.7,26
						c-6.3,8.4-13.1,16.4-20.1,24.2c-7,7.8-14.3,15.4-21.7,22.8c-7.4,7.4-15.1,14.5-22.9,21.6c-15.6,14-31.8,27.3-48.5,40
						C410.9,402.5,393.8,414.7,376.2,426.1z"/>
				</g>
			</g>
			<g>
				<g>
					<path class="st2" d="M346.8,515.9c8.5-2.5,17.1-4.9,25.7-7.3l25.7-7c17.2-4.6,34.4-9.1,51.6-13.6c17.2-4.4,34.5-8.6,51.8-12.7
						c17.3-4.1,34.7-8,52.1-11.7c-8.7,2-17.4,3.9-26,6l-13,3l-13,3.1c-17.3,4.2-34.6,8.4-51.8,12.9c-17.2,4.3-34.5,8.8-51.7,13.4
						l-25.8,6.9C363.9,511.2,355.3,513.5,346.8,515.9z"/>
				</g>
				<g>
					<path class="st2" d="M373.5,511.9c4.6-0.3,9.2-0.9,13.8-1.4l6.9-0.9l6.9-1.1c4.6-0.7,9.1-1.5,13.7-2.3
						c4.6-0.9,9.1-1.7,13.7-2.6c18.2-3.6,36.2-8,54.1-12.7c18-4.6,35.8-9.8,53.5-15.1l26.5-8.3l26.4-8.7l-26.3,8.9
						c-8.8,2.8-17.7,5.6-26.5,8.4c-17.8,5.4-35.5,10.6-53.5,15.3c-18,4.7-36,8.9-54.2,12.5c-4.5,0.9-9.1,1.7-13.7,2.6
						c-4.6,0.8-9.1,1.6-13.7,2.3l-6.9,1l-6.9,0.9C382.7,511.1,378.1,511.7,373.5,511.9z"/>
				</g>
			</g>
			<g>
				<g>
					<path class="st2" d="M349,396.3c4.1-5.4,8.1-11,12.1-16.5c2-2.8,4-5.5,6-8.3c2-2.8,4-5.6,5.9-8.4c7.8-11.2,15.5-22.5,22.9-34
						c1.9-2.8,3.7-5.7,5.5-8.6c1.8-2.9,3.7-5.8,5.4-8.7l5.3-8.8l5.1-8.9c1.7-2.9,3.3-6,4.9-9l2.4-4.5c0.8-1.5,1.5-3,2.3-4.6l2.3-4.6
						c0.8-1.5,1.6-3,2.2-4.6l4.2-9.3c-5.2,12.6-11.4,24.8-18.1,36.7l-5.1,8.9l-5.3,8.8c-1.7,2.9-3.6,5.8-5.4,8.7
						c-1.8,2.9-3.6,5.8-5.5,8.7c-7.4,11.5-15.2,22.7-23,33.9C365.5,374.5,357.4,385.5,349,396.3z"/>
				</g>
				<g>
					<path class="st2" d="M358.2,390.5c5.8-6.7,11.5-13.6,17-20.5c5.6-6.9,11-13.9,16.4-21c10.7-14.2,20.9-28.8,30.5-43.7
						c4.8-7.5,9.4-15.1,13.9-22.8c4.4-7.7,8.6-15.5,12.5-23.5c2-4,3.8-8,5.6-12.1c1.7-4.1,3.4-8.2,4.9-12.4
						c3.1-8.3,5.8-16.8,7.6-25.5c-1.7,8.7-4.3,17.3-7.3,25.6c-1.5,4.2-3.2,8.3-4.9,12.4c-1.8,4.1-3.6,8.1-5.6,12.1
						c-3.9,8-8,15.9-12.4,23.6c-4.4,7.7-9,15.3-13.8,22.8c-9.6,15-19.9,29.5-30.6,43.6C381.2,363.3,370,377.2,358.2,390.5z"/>
				</g>
			</g>
			<g>
				<g>
					<path class="st2" d="M350.2,346.8l55.6-98.6l27.9-49.3l13.8-24.7c4.6-8.2,9.2-16.5,13.7-24.8c-8.8,16.7-18,33.2-27.2,49.6
						l-27.7,49.4l-28,49.2l-14,24.6L350.2,346.8z"/>
				</g>
				<g>
					<path class="st2" d="M355,345.5c5.1-6.7,10.1-13.5,15-20.3c4.9-6.8,9.8-13.7,14.5-20.7c9.5-13.9,18.6-28.1,27.2-42.6
						c8.6-14.5,16.7-29.3,23.7-44.6c3.4-7.7,6.6-15.5,9.3-23.5c2.7-8,4.8-16.2,5.7-24.6c-0.8,8.4-2.8,16.6-5.4,24.7
						c-2.6,8-5.7,15.9-9.2,23.6c-6.9,15.4-14.9,30.2-23.5,44.8c-8.6,14.5-17.8,28.6-27.4,42.5C375.3,318.6,365.4,332.2,355,345.5z"
						/>
				</g>
			</g>
			<g>
				<g>
					<path class="st3" d="M71.8,474.7c5,3,10.3,5.4,15.6,7.7c5.3,2.3,10.8,4.3,16.2,6.3l8.2,2.8c1.4,0.5,2.7,0.9,4.1,1.4l4.2,1.2
						l8.3,2.5c2.8,0.8,5.6,1.5,8.4,2.3l8.4,2.2c1.4,0.4,2.8,0.7,4.2,1l4.2,1l8.5,1.9l4.2,1l4.3,0.8l17.1,3.4
						c5.7,1,11.4,1.9,17.2,2.9l8.6,1.5l8.6,1.2l17.2,2.4c2.9,0.4,5.8,0.7,8.6,1l8.6,1c5.8,0.6,11.5,1.3,17.3,1.9
						c11.6,1,23.1,2.1,34.7,2.9l34.7,2.2l-34.7-1.9c-11.6-0.8-23.1-1.9-34.7-2.8c-5.8-0.6-11.5-1.2-17.3-1.9l-8.6-0.9
						c-2.9-0.3-5.8-0.6-8.6-1l-17.2-2.4l-8.6-1.2l-8.6-1.4c-5.7-1-11.4-1.9-17.2-2.9l-17.1-3.4l-4.3-0.9l-4.2-1l-8.5-2l-4.2-1
						c-1.4-0.3-2.8-0.7-4.2-1l-8.4-2.2c-2.8-0.8-5.6-1.4-8.4-2.3l-8.3-2.5l-4.2-1.3c-1.4-0.4-2.7-0.9-4.1-1.4l-8.2-2.8
						c-5.4-2.1-10.9-4.1-16.2-6.4C82,480.2,76.7,477.8,71.8,474.7z"/>
				</g>
				<g>
					<path class="st3" d="M324.3,526.2c-3.8-1.3-7.7-2.3-11.6-3.2c-1.9-0.5-3.9-0.9-5.9-1.4c-2-0.4-3.9-0.9-5.9-1.3l-5.9-1.2
						l-5.9-1.1c-3.9-0.8-7.9-1.5-11.9-2.2c-15.8-2.7-31.7-5.1-47.7-7.1c-8-1.1-15.9-2-23.9-3c-8-0.9-16-1.8-24-2.7l-24-2.4l-24-2.3
						l24,2c8,0.7,16,1.6,24,2.3c8,0.8,16,1.7,24,2.6c8,1,16,1.9,23.9,2.9c15.9,2.1,31.8,4.5,47.7,7.3c4,0.7,7.9,1.4,11.9,2.2
						l5.9,1.2l5.9,1.3c2,0.4,3.9,0.9,5.9,1.3c2,0.5,3.9,0.9,5.9,1.4C316.7,523.8,320.5,524.9,324.3,526.2z"/>
				</g>
				<g>
					<path class="st3" d="M332.8,521.5c-9.6-3.2-19.4-5.6-29.3-7.9c-9.9-2.2-19.8-4.2-29.8-5.8c-20-3.3-40.1-5.7-60.2-7.4l-7.6-0.7
						l-7.6-0.5c-5-0.3-10.1-0.8-15.1-0.9l-15.2-0.7c-5.1-0.1-10.1-0.5-15.2-0.9c-20.2-1.7-40.3-5.2-59.5-11.6
						c9.6,3.2,19.5,5.5,29.4,7.3c9.9,1.8,20,3.1,30.1,3.9c5,0.4,10.1,0.7,15.1,0.8l15.2,0.7c5.1,0.2,10.1,0.6,15.2,0.9l7.6,0.5
						l7.6,0.6c20.2,1.8,40.3,4.2,60.2,7.6c10,1.7,19.9,3.7,29.8,5.9C313.4,515.6,323.2,518.2,332.8,521.5z"/>
				</g>
			</g>
			<g>
				<g>
					<path class="st2" d="M86.1,299c23.5,4.5,46.8,10.2,69.9,16.7c23.1,6.5,45.9,13.7,68.4,22.1c5.6,2.1,11.2,4.3,16.8,6.5
						c5.5,2.3,11.1,4.6,16.5,7c5.5,2.4,10.9,5,16.3,7.5c5.4,2.7,10.8,5.3,16,8.1c21.2,11.2,41.5,24.3,59.2,40.5
						c-8.9-8-18.5-15.2-28.5-21.9c-2.5-1.6-5-3.3-7.5-4.9l-7.7-4.7c-2.6-1.5-5.2-3-7.8-4.4c-2.6-1.5-5.2-2.9-7.9-4.3
						c-5.3-2.9-10.7-5.4-16-8.1c-5.4-2.5-10.8-5.1-16.3-7.4c-5.5-2.5-11-4.7-16.5-7c-5.6-2.2-11.1-4.4-16.8-6.5
						c-22.4-8.5-45.2-15.8-68.3-22.3c-11.5-3.3-23.1-6.3-34.7-9.2C109.5,304,97.8,301.3,86.1,299z"/>
				</g>
				<g>
					<path class="st2" d="M97.4,301.3l124.1,51.4l62,25.8l31,12.8c10.3,4.3,20.7,8.6,31,12.8c-10.4-4.1-20.8-8.3-31.2-12.5
						l-31.1-12.7l-62.1-25.6l-61.9-25.9l-31-13L97.4,301.3z"/>
				</g>
			</g>
			<g>
				<g>
					<path class="st2" d="M155.8,372.4c7.5,4.1,15.1,8,22.7,11.9c3.8,2,7.6,3.9,11.4,5.8c3.8,1.9,7.6,3.8,11.4,5.7
						c15.3,7.5,30.7,14.9,46.3,21.8c3.9,1.8,7.8,3.4,11.7,5.2c3.9,1.7,7.8,3.4,11.8,5l11.8,4.9l11.9,4.6c4,1.6,8,2.9,12,4.4l6,2.1
						c2,0.7,4.1,1.3,6.1,2l6.1,2c2,0.7,4,1.3,6.1,1.9l12.3,3.4c-16.6-4-32.8-9.5-48.8-15.4l-11.9-4.6l-11.8-4.8
						c-4-1.6-7.9-3.3-11.8-5c-3.9-1.7-7.8-3.3-11.7-5.1c-15.6-7-30.9-14.4-46.2-21.9C185.8,388.5,170.7,380.6,155.8,372.4z"/>
				</g>
				<g>
					<path class="st2" d="M98.5,338.6l59.5,29.1c19.9,9.6,39.8,19.2,59.8,28.6c20,9.5,39.9,18.9,60.1,27.9c5,2.3,10.1,4.5,15.1,6.7
						c5,2.3,10.1,4.4,15.2,6.5c2.5,1.1,5.1,2.2,7.6,3.2l7.7,3.1c5.1,2.1,10.4,3.8,15.6,5.7c-5.2-1.8-10.5-3.5-15.6-5.6l-7.7-3
						c-2.6-1-5.1-2.1-7.7-3.2c-5.1-2.1-10.2-4.3-15.2-6.5c-5.1-2.2-10.1-4.4-15.2-6.7c-20.2-9-40.2-18.4-60.2-27.8
						c-19.9-9.5-39.8-19.1-59.7-28.8l-29.7-14.6L98.5,338.6z"/>
				</g>
				<g>
					<path class="st2" d="M331.8,444c-8.6-4.4-17.1-8.7-25.8-13c-8.6-4.3-17.2-8.6-25.9-12.8c-17.3-8.5-34.7-16.7-52.1-24.8
						c-17.4-8.1-35.1-15.9-52.8-23.2c-4.5-1.8-8.9-3.7-13.4-5.4l-13.5-5.1l-13.6-4.7c-4.6-1.4-9.2-2.7-13.8-4.1
						c4.6,1.3,9.3,2.5,13.9,3.9l13.7,4.6l13.5,5c4.5,1.7,8.9,3.6,13.4,5.3c17.8,7.3,35.5,15,52.9,23.1c17.5,8.1,34.8,16.4,52.1,25
						c8.6,4.3,17.2,8.6,25.8,12.9C314.8,435.1,323.3,439.5,331.8,444z"/>
				</g>
			</g>
			<g>
				<g>
					<path class="st2" d="M346.9,491.6c-10.6-2.9-21.2-5.9-31.8-8.9l-31.7-9.2c-21.1-6.2-42.2-12.5-63.2-19
						c-21-6.6-41.9-13.3-62.7-20.6c-10.4-3.6-20.7-7.3-31-11.3c-5.1-2-10.2-4.1-15.2-6.3c-2.5-1.1-5-2.2-7.5-3.5
						c-2.5-1.2-4.9-2.5-7.3-3.8c2.4,1.3,4.8,2.6,7.4,3.7c2.5,1.2,5,2.3,7.5,3.4c5.1,2.2,10.2,4.2,15.3,6.2
						c10.3,3.9,20.6,7.6,31,11.2c20.8,7.2,41.7,13.9,62.8,20.4c21,6.6,42,13,63.1,19.2l31.7,9.3
						C325.7,485.6,336.3,488.6,346.9,491.6z"/>
				</g>
				<g>
					<path class="st2" d="M125,414.3c9.2,2.5,18.3,5.2,27.5,7.8c9.1,2.7,18.3,5.4,27.4,8.1c18.2,5.5,36.4,11.2,54.6,17
						c9.1,2.9,18.1,6,27.1,9.1c9,3.1,18,6.2,26.9,9.5c17.9,6.5,35.7,13.3,53,21.5l-13.1-5.7l-13.3-5.3c-8.9-3.4-17.8-6.9-26.7-10
						c-8.9-3.3-18-6.3-27-9.4c-9-3-18.1-6.1-27.1-9c-18.1-5.9-36.3-11.7-54.5-17.2c-9.1-2.8-18.2-5.5-27.4-8.2
						C143.3,419.6,134.2,416.9,125,414.3z"/>
				</g>
			</g>
			<g>
				<g>
					<path class="st3" d="M112.3,224l27.9,14.1l27.8,14.3c18.5,9.6,37,19.2,55.5,28.8c18.4,9.7,36.8,19.5,55.2,29.5
						c18.3,10,36.6,20,54.3,31.1c-8.9-5.4-17.9-10.6-27.1-15.7c-9.1-5.1-18.3-10.1-27.4-15c-18.3-9.9-36.8-19.6-55.2-29.3
						c-18.4-9.7-36.9-19.4-55.4-29L112.3,224z"/>
				</g>
				<g>
					<path class="st3" d="M144.8,240.6c13.6,4.8,27.1,9.9,40.5,15.3c13.4,5.4,26.7,11,39.9,16.9c13.1,6,26.2,12.2,39,18.9
						c3.2,1.6,6.3,3.4,9.5,5.2l4.8,2.6l4.7,2.7l4.7,2.8l2.3,1.4c0.8,0.5,1.5,1,2.3,1.5l9.1,5.9l-9.2-5.8c-0.8-0.5-1.5-1-2.3-1.4
						l-2.3-1.3l-4.7-2.7l-4.7-2.7l-4.8-2.6c-3.2-1.7-6.3-3.5-9.5-5.1c-12.8-6.7-25.9-12.8-39-18.8c-13.1-6-26.4-11.6-39.8-17.1
						c-3.3-1.4-6.7-2.7-10-4c-3.4-1.3-6.7-2.7-10.1-3.9C158.3,245.7,151.5,243.1,144.8,240.6z"/>
				</g>
			</g>
			<g>
				<g>
					<path class="st3" d="M213.8,118.6c13.8,8.8,26.7,18.8,39.1,29.5c12.3,10.7,24,22.2,34.9,34.4c2.7,3,5.3,6.2,7.9,9.3
						c2.5,3.2,5.1,6.4,7.5,9.7c2.5,3.2,4.8,6.6,7.2,9.9c2.2,3.4,4.6,6.8,6.7,10.3c4.4,6.9,8.3,14.1,11.9,21.4l2.6,5.5
						c0.8,1.9,1.6,3.8,2.4,5.6l1.2,2.8c0.4,0.9,0.7,1.9,1.1,2.9l2.2,5.7c-5.7-15.3-13-30-21.7-43.8c-2.1-3.5-4.5-6.8-6.7-10.2
						c-2.4-3.3-4.7-6.7-7.2-9.9c-2.4-3.3-5-6.4-7.6-9.6c-2.6-3.1-5.2-6.3-8-9.3c-10.7-12.3-22.4-23.7-34.7-34.5
						c-6.1-5.4-12.4-10.6-18.9-15.5C227.3,127.8,220.7,123,213.8,118.6z"/>
				</g>
				<g>
					<path class="st3" d="M216.4,118.1c12.4,6.4,23.8,14.5,34.7,23.2c10.8,8.8,21.1,18.3,30.6,28.5c1.2,1.2,2.3,2.6,3.5,3.9l3.4,3.9
						l3.4,3.9l3.3,4.1l6.5,8.2l6.1,8.5l3.1,4.2c1,1.4,1.9,2.9,2.9,4.4l5.7,8.8l1.4,2.2l1.3,2.3l2.6,4.5l5.2,9.1l-5.3-9l-2.7-4.5
						l-1.3-2.2l-1.4-2.2l-5.7-8.7c-1-1.4-1.9-2.9-2.9-4.3l-3.1-4.2l-6.2-8.4l-6.6-8.1l-3.3-4.1l-3.5-3.9c-2.3-2.6-4.6-5.3-7-7.8
						c-9.5-10.2-19.6-19.8-30.4-28.6l-4-3.3l-4.2-3.2c-2.7-2.1-5.6-4.1-8.5-6.1C228.4,125.1,222.5,121.3,216.4,118.1z"/>
				</g>
			</g>
			<g>
				<g>
					<path class="st2" d="M343,290.6c1.3-0.9,2.6-1.9,3.7-3l1.7-1.7c0.6-0.6,1.1-1.2,1.6-1.8c0.5-0.6,1.1-1.2,1.6-1.8l1.4-1.9
						l1.4-1.9c0.5-0.6,0.9-1.3,1.3-2l2.6-4l2.4-4.2c1.7-2.8,3-5.7,4.4-8.6l1.1-2.2l1-2.2l1.9-4.4c0.6-1.5,1.3-2.9,1.8-4.5l1.7-4.5
						c2.3-6,4.1-12.2,6.1-18.3c0.9-3.1,1.7-6.2,2.6-9.3l1.3-4.7l0.6-2.3l0.5-2.3l2.2-9.4c0.7-3.1,1.5-6.3,2-9.4l1.8-9.5
						c0.6-3.2,1.3-6.3,1.7-9.5l3.1-19.1l-2.8,19.1c-0.4,3.2-1.1,6.3-1.7,9.5l-1.8,9.5c-0.5,3.2-1.3,6.3-2,9.4l-2.1,9.4l-0.5,2.4
						l-0.6,2.3l-1.2,4.7c-0.9,3.1-1.6,6.2-2.5,9.3c-2,6.1-3.8,12.3-6.2,18.3l-1.7,4.5c-0.5,1.5-1.2,3-1.9,4.5l-1.9,4.4l-1,2.2
						l-1.1,2.2c-1.5,2.9-2.8,5.8-4.5,8.6l-2.4,4.2l-2.7,4c-0.5,0.7-0.9,1.4-1.4,2l-1.5,1.9l-1.5,1.9c-0.5,0.6-1.1,1.2-1.6,1.8
						c-0.5,0.6-1.1,1.2-1.6,1.8l-1.7,1.7C345.6,288.7,344.4,289.8,343,290.6z"/>
				</g>
				<g>
					<path class="st2" d="M344.3,287.6c3.1-4.4,5.8-9,8.5-13.6c2.6-4.6,5.1-9.4,7.4-14.2c4.7-9.6,8.9-19.5,12.7-29.5l2.8-7.5
						c0.9-2.5,1.7-5.1,2.6-7.6c1.8-5,3.3-10.2,4.9-15.3c0.8-2.5,1.5-5.1,2.2-7.7l2.1-7.7c1.3-5.2,2.6-10.4,3.9-15.6
						c-1.2,5.2-2.4,10.4-3.6,15.6l-2.1,7.8c-0.7,2.6-1.3,5.2-2.1,7.7c-1.5,5.1-3,10.3-4.8,15.3c-0.9,2.5-1.7,5.1-2.6,7.6l-2.8,7.5
						c-3.9,10-8,19.9-12.8,29.5C355.8,269.5,350.6,279,344.3,287.6z"/>
				</g>
			</g>
			<g>
				<g>
					<path class="st3" d="M337.3,246.4l3-17.9c0.5-3,0.9-6,1.3-9l1.2-9c0.2-1.5,0.4-3,0.6-4.5l0.4-4.5l0.9-9c0.4-3,0.5-6,0.6-9
						l0.5-9.1c0.3-12.1,0.2-24.2-1.3-36.2c-0.8-6-1.8-12-3.6-17.7l-0.6-2.2c-0.2-0.7-0.5-1.4-0.8-2.1c-0.5-1.4-1-2.9-1.7-4.2
						l-0.9-2.1l-1.1-2c-0.8-1.3-1.6-2.6-2.6-3.7c1,1.1,1.9,2.3,2.7,3.6l1.1,2l1,2.1c0.7,1.3,1.2,2.8,1.7,4.2
						c0.3,0.7,0.6,1.4,0.8,2.1l0.7,2.2c1.8,5.8,2.8,11.8,3.7,17.8c1.6,12,1.7,24.2,1.4,36.3l-0.5,9.1c-0.2,3-0.3,6-0.7,9.1l-0.9,9
						l-0.5,4.5c-0.2,1.5-0.4,3-0.6,4.5l-1.3,9c-0.4,3-0.8,6-1.4,9L337.3,246.4z"/>
				</g>
				<g>
					<path class="st3" d="M332.6,107.2c0.3,0.6,0.6,1.2,0.9,1.8c0.3,0.6,0.5,1.2,0.8,1.9c0.5,1.3,0.9,2.6,1.3,3.9
						c0.4,1.3,0.7,2.6,1.1,3.9c0.4,1.3,0.6,2.6,0.9,4c1.1,5.3,1.9,10.7,2.5,16.1c1.2,10.8,1.7,21.6,1.9,32.4l0,8.1
						c0,2.7,0,5.4-0.1,8.1l-0.2,8.1c-0.1,2.7-0.1,5.4-0.3,8.1c-0.3,5.4-0.5,10.8-0.9,16.2l-1.2,16.2l0.9-16.2
						c0.3-5.4,0.5-10.8,0.7-16.2c0.1-2.7,0.2-5.4,0.2-8.1l0.2-8.1c0.1-2.7,0-5.4,0-8.1l0-8.1c-0.2-10.8-0.7-21.6-1.8-32.4
						c-0.6-5.4-1.3-10.7-2.3-16c-0.3-1.3-0.5-2.7-0.8-4c-0.3-1.3-0.6-2.6-1-3.9c-0.4-1.3-0.7-2.6-1.2-3.9c-0.2-0.6-0.5-1.3-0.7-1.9
						C333.2,108.4,332.9,107.8,332.6,107.2z"/>
				</g>
			</g>
			<g>
				<g>
					<path class="st2" d="M343.9,314.1c-0.5-2.5-2-4.7-3.4-6.9l-2.2-3.2l-2.4-3c-1.6-2.1-3.3-4-5-5.9l-2.6-2.9l-2.7-2.8l-5.4-5.6
						l-5.6-5.4c-3.7-3.6-7.5-7.1-11.3-10.5c-15.3-13.8-31.1-27.1-47.3-39.9l-12.1-9.7l-12.2-9.5l-12.2-9.5l-12.4-9.3
						c-8.3-6.2-16.4-12.4-24.8-18.5l-24.9-18.3l25.1,18.1c8.4,6,16.6,12.3,24.9,18.4l12.4,9.3l12.3,9.4l12.3,9.4l12.1,9.6
						c16.1,12.9,31.9,26.2,47.2,40.1c3.8,3.5,7.6,6.9,11.3,10.6l5.5,5.4c1.8,1.8,3.6,3.7,5.4,5.6l2.7,2.8l2.5,2.9
						c1.7,1.9,3.4,3.9,5,5.9l2.4,3.1l2.2,3.2C341.9,309.3,343.4,311.5,343.9,314.1z"/>
				</g>
				<g>
					<polygon class="st2" points="201.8,196.3 219.2,210 236.5,223.7 271.2,251.2 305.7,278.9 323,292.7 340.2,306.6 322.8,292.9 
						305.5,279.2 270.8,251.7 236.3,224.1 219,210.2 					"/>
				</g>
			</g>
		</g>
		<path class="st2" d="M337.5,258.1c4.9,28.1,8.4,56.3,11.2,84.7c2.5,28.4,4,56.9,4.5,85.5c0.2,28.5,0,57.2-3.5,85.7
			c-2.2,14.2-4.1,28.4-7.6,42.3c-2.8,14-7.5,27.7-12,41.2l-0.9-0.3c4.7-28.2,8.5-56.1,11.1-84.3c2.1-28.2,4.8-56.3,5.4-84.7
			c0.5-28.3,0-56.7-1.6-85.1c-1.4-28.4-3.7-56.7-7.4-84.9L337.5,258.1z"/>
	</g>
	<g>
		<g>
			<path class="st4" d="M365.4,507c-1.9,0.9-7.9,2.7-7.6,4.8c0.1,1.1,0.9,2,1.8,2.6c2.1,1.3,8.5,0.9,10.9,0.7
				c7.7-0.6,15.5-1.2,22.7-3.8c5.7-2.1,11.2-5.7,14.7-10.8c4.2-6.2-0.9-8.1-7-6.9C389.1,495.9,376.1,501.7,365.4,507z"/>
			<path class="st4" d="M357.7,471.5c-0.2,0.3-0.3,0.6-0.3,0.9c0.1,0.3,0.3,0.5,0.6,0.7c2.1,1.4,11.3-0.8,14.4-1.4
				c7.3-1.3,15.4-4.8,21.8-8.6c1.1-0.7,2.3-1.5,3.1-2.5c1.7-2.1,1.9-5,2-7.7c0-0.8,0.1-1.6-0.3-2.3c-0.3-0.6-0.9-1-1.5-1.3
				C386.1,443.3,363.1,463.1,357.7,471.5z"/>
			<path class="st4" d="M359,428.9c1.1,1.7,3.6,1.3,5.5,0.5c7.3-2.9,17.5-10.4,24.1-14.6c1.6-1,3.1-2,4.2-3.5
				c1.1-1.5,1.5-3.6,0.6-5.2c-0.5-1-1.5-1.7-1.8-2.7c-0.4-1.4,0.4-3.1-0.6-4.1c-0.9-0.8-2.4-0.2-3.4,0.4
				C377.5,406.3,366.7,419.8,359,428.9z"/>
			<path class="st4" d="M355.5,386.8c0,0.8,0,1.6,0.7,2.1c0.8,0.6,1.9,0.1,2.7-0.4c8.3-5.1,17.5-20.1,23.2-28c0.4-0.6,0.9-1.3,1-2
				c0.6-7.4-11.7,1.7-13.3,3.6C365.7,367,355.9,380.1,355.5,386.8z"/>
			<path class="st4" d="M358.2,332.1c-0.4,1.1-0.5,2.6,0.5,3.2c0.7,0.4,1.6,0.1,2.3-0.3c3.8-1.9,10.5-10.9,13.1-14.2
				c4.5-5.7,8.9-11.5,13-17.5c1-1.5,2-3,2.3-4.7c0.4-1.7-0.1-3.7-1.5-4.8c-1.4-1.1-3.5-0.9-5.1,0c-1.6,0.8-2.7,2.2-3.9,3.6
				C371.1,306.8,362.2,320.4,358.2,332.1z"/>
			<path class="st4" d="M352.3,279.5c1.4,0.8,2.9-0.5,4-1.6c3.1-3.3,6.3-6.6,8.7-10.4c2.4-3.8,4.1-8.2,4.1-12.7c0-0.7-0.1-1.5-0.5-2
				c-1.2-1.3-3.3-0.1-4.5,1.2C361.7,256.6,348,277.1,352.3,279.5z"/>
			<path class="st4" d="M290.2,514.9c-8.9,0.8-17.4,4-25.8,7.2c-1.8,0.7-3.5,1.3-5.2,2.2c2,3.5,6.7,4,10.8,4
				c9.5,0.1,21.4,2.1,31,1.9c6.7-0.1,24.6,0.6,30.4-3.5c4.3-3-10.5-7.9-15.3-9C307.5,515.8,298.9,514.1,290.2,514.9z"/>
			<path class="st4" d="M306.3,472.7c-4.2-0.2-8.8,0.3-12,3.2c-1.4,1.3-2.4,3.3-1.6,5c0.4,0.7,1,1.2,1.7,1.6c3.4,2,7.7,1.9,11.6,2.3
				c4.6,0.4,9.1,1.7,13.6,2.8c3.9,0.9,9.6,3.1,13.6,1.9c4.1-1.3,3.2-5,0.6-7.4c-3.2-2.9-8-4.8-12-6.3
				C316.9,474,311.6,473,306.3,472.7z"/>
			<path class="st4" d="M317.6,435.2c-2.7-1.3-6-2-8.7-0.7c-1.8,0.9-3.1,2.6-4.3,4.3c-0.6,0.8-1.2,1.6-1.4,2.6
				c-0.3,1-1.2,3.4-0.4,4.1c0.6,0.6,1.6,0.7,2.4,0.8c3.2,0.6,6.2,1.9,9.2,3.1c3.2,1.3,25.6,8.3,26.4,4.4c0.6-3-10.7-9.4-12.7-11.1
				C324.9,439.8,321.6,437,317.6,435.2z"/>
			<path class="st4" d="M306,388c-0.4,0.3-0.8,0.7-0.9,1.2c-0.3,0.9,0.6,1.8,1.4,2.3c2.1,1.3,4.2,2.3,6.6,3.1
				c9.8,3.2,19.4,7.9,29.6,8.9c0.7,0.1,1.2-0.7,0.9-1.3c-1.1-2.4-2.6-4.3-4.4-6.6c-2.3-2.9-4.8-5.5-7.6-8c-2.6-2.3-5.2-4.8-8-6.9
				c-1.6-1.2-4.4-3.7-6.3-4.1c-2.1-0.4-3.7,3.2-4.8,4.6C310.5,383.8,308.3,386,306,388z"/>
			<path class="st4" d="M323,337.8c-2-0.6-4.1-0.9-6.1-1.2c-1.7-0.2-3.5-0.4-5.2-0.7c-0.3,0-0.6-0.1-0.9,0.1
				c-0.7,0.4-0.2,1.5,0.4,2.1c2.8,2.7,6.4,4.3,9.9,6c3.1,1.5,6.1,3.2,8.9,5.1c3.1,2,8.6,4.1,11.6,4.1c-2.1-3.5-5.4-7.7-8.4-9.7
				C329.5,341.2,327.1,339.1,323,337.8z"/>
		</g>
		<g>
			<path class="st5" d="M477.2,318.7c-6.4,4.9-12.2,11.8-12.2,19.9c0,1.4,0.2,2.8,1,3.9c1.2,1.9,3.7,2.6,6,2.3
				c2.2-0.3,4.2-1.5,6.1-2.7c13.9-8.6,25.9-20.2,35-33.7c7.9-11.6-7.3-10.7-14-6.4C491.6,306.7,484.3,313.2,477.2,318.7z"/>
			<path class="st5" d="M185.3,321.2c-3.6-3.1-8.7-3.5-13.4-3.6c-7.1-0.2-14.1,0-21.2,0.3c-1.3,0.1-2.8,0.2-3.5,1.3
				c-1.2,1.8,0.7,4,2.5,5.3c8.5,5.9,17.7,10.7,27.4,14.2c1.6,0.6,3.3,1.1,5.1,1.2c2.8,0.2,5.5-0.9,8.1-1.9c0.6-0.2,1.2-0.5,1.6-0.9
				c0.5-0.5,0.7-1.1,0.9-1.8c1-3.7-0.6-8-3.7-10.1C188.4,323.8,186.6,322.3,185.3,321.2z"/>
			<path class="st5" d="M196.6,256.5c-1.5-0.5-3-1-4.5-0.9c-1.6,0.1-3.1,1.1-3.5,2.6c-0.5,1.9,1,3.7,2.4,5
				c8.1,7.8,18.1,13.7,28.8,17c5.2,1.6,10.6,2.6,16,3.7c1.9,0.4,3.8,0.8,5.5,1.8c0.7,0.5,1.5,1.1,2.4,1c1-0.1,1.8-1.2,1.7-2.3
				c0-1.1-0.6-2-1.2-2.9c-4.8-6.8-13.5-9.7-20.7-13.4C214.8,263.8,205.8,259.8,196.6,256.5z"/>
		</g>
	</g>
</g>
</svg>
