<?xml version="1.0" encoding="utf-8"?>
<!-- Generator: Adobe Illustrator 23.1.0, SVG Export Plug-In . SVG Version: 6.00 Build 0)  -->
<svg version="1.1" id="Capa_1" xmlns="http://www.w3.org/2000/svg" xmlns:xlink="http://www.w3.org/1999/xlink" x="0px" y="0px"
	 viewBox="0 0 700 700" style="enable-background:new 0 0 700 700;" xml:space="preserve">
<style type="text/css">
	.st0{fill:#C63C4C;}
	.st1{fill:#EC7057;}
	.st2{fill:#EDB384;}
	.st3{fill:#33515A;}
	.st4{fill:#EABA96;}
	.st5{fill:#F5605A;}
	.st6{opacity:0.51;fill:#F5605A;}
	.st7{opacity:0.42;fill:#FEB16B;}
</style>
<g>
	<g>
		<path class="st0" d="M169.6,421.4c0,0-122.8,34.9-89.9,200.1c0,0,29.4-42.8,84.6-37.6c55.2,5.2,135.9,20,159.9-73
			c0,0-5.6,59.2,82.5,80.8c88.1,21.5,176.7,5.6,225,20.3c0,0-12.8-143-143.9-170.7c0,0,38.2,2.6,63.4-70
			c25.1-72.6,74.7-93.2,74.7-93.2S512,217.8,406.9,343.6c0,0,56.9-76.7,11-159C372.1,102.2,362.1,79,362.1,79S222.4,222.3,270,340.2
			l-9.9-2c0,0-72.8-123.9-187.3-113.5c0,0,23.7,27.6,38.1,89.7C125.2,376.6,169.6,421.4,169.6,421.4z"/>
		<g>
			<g>
				<g>
					<path class="st1" d="M377.9,445.7c10.2-7.8,20.1-16.1,29.8-24.6c9.7-8.5,19.1-17.3,28.2-26.4c9-9.2,17.8-18.6,25.8-28.6
						l5.9-7.6l3-3.8c1-1.3,2.1-2.5,3.1-3.7c4.2-4.9,8.7-9.5,13.4-14c4.8-4.4,9.7-8.5,14.8-12.5c5.1-4,10.4-7.7,15.7-11.3
						c10.8-7.1,22-13.6,33.7-19.1c5.8-2.8,11.8-5.3,17.8-7.5c6-2.3,12.2-4.3,18.4-5.8c6.3-1.6,12.6-2.8,19.1-3.3
						c6.4-0.5,12.9-0.4,19.2,1c-6.3-1.3-12.8-1.3-19.2-0.6c-6.4,0.6-12.7,1.9-18.9,3.6c-6.2,1.6-12.3,3.7-18.3,6
						c-6,2.3-11.9,4.9-17.7,7.7c-5.8,2.8-11.5,5.8-17,9c-5.6,3.2-11.1,6.6-16.4,10.2c-5.3,3.6-10.6,7.3-15.6,11.3
						c-5,4-9.9,8.1-14.7,12.5c-4.7,4.4-9.2,9-13.4,13.8c-1,1.2-2.1,2.4-3.1,3.7l-3,3.8l-6,7.6c-8.2,10-16.9,19.5-26.1,28.6
						C418.2,413.6,398.6,430.3,377.9,445.7z"/>
				</g>
				<g>
					<path class="st1" d="M275.5,478.4c-2.6-1-5.4-1.5-8.2-2c-2.8-0.5-5.6-0.7-8.4-0.9l-4.2-0.1c-1.4,0-2.8,0.1-4.2,0.1
						c-2.8,0-5.6,0.3-8.4,0.6c-11.2,1.1-22.2,3.6-32.9,6.8l-8,2.5l-7.9,2.9l-3.9,1.5c-1.3,0.5-2.6,1.1-3.9,1.6l-7.7,3.3
						c-0.6,0.3-1.3,0.5-1.9,0.8l-1.9,0.9l-3.8,1.8l-7.6,3.7c-2.5,1.3-4.9,2.7-7.4,4c-2.4,1.5-4.8,2.9-7.1,4.4
						c-9.4,6.1-18,13.3-25.8,21.4c-1,1-1.9,2.1-2.8,3.1c-0.9,1-1.9,2-2.8,3.1c-1.8,2.2-3.6,4.3-5.3,6.5c-3.4,4.4-6.5,9.1-9.5,13.9
						c-2.9,4.8-5.5,9.7-7.9,14.8c-2.4,5.1-4.5,10.3-6.4,15.5c-3.7,10.6-6.6,21.5-7.9,32.7c1.1-11.2,3.7-22.2,7.3-32.9
						c1.8-5.3,3.9-10.6,6.3-15.7c2.4-5.1,4.9-10.1,7.8-15c0.7-1.2,1.5-2.4,2.2-3.6c0.8-1.2,1.5-2.4,2.3-3.6c1.6-2.3,3.2-4.7,4.9-6.9
						c1.7-2.3,3.5-4.4,5.3-6.6c0.9-1.1,1.9-2.1,2.8-3.2c1-1,1.9-2.1,2.9-3.1c7.8-8.1,16.5-15.4,26-21.6c2.4-1.5,4.8-3,7.2-4.4
						c2.5-1.3,5-2.7,7.4-4l7.6-3.7l3.8-1.8l1.9-0.9c0.6-0.3,1.3-0.6,1.9-0.8l7.8-3.3c1.3-0.5,2.6-1.1,3.9-1.6l4-1.5
						c2.6-1,5.3-2,7.9-2.9l8.1-2.5c10.8-3.1,21.9-5.5,33.1-6.5c2.8-0.2,5.6-0.4,8.4-0.4c1.4,0,2.8-0.1,4.2,0l4.2,0.2
						c2.8,0.2,5.6,0.5,8.4,1C270.1,476.8,272.9,477.4,275.5,478.4z"/>
				</g>
				<g>
					<path class="st1" d="M76.7,230.1c4.8,0.9,9.5,2.3,14.1,3.9c4.6,1.6,9.1,3.6,13.5,5.8c8.8,4.4,17,9.8,24.7,15.9
						c7.6,6.2,14.6,13.2,20.8,20.8c6.2,7.6,11.7,15.8,16.4,24.5l3.4,6.5c1.1,2.2,2.2,4.4,3.4,6.5c1.2,2.1,2.3,4.3,3.6,6.4l1.9,3.1
						c0.6,1,1.3,2,2,3.1c2.6,4.1,5.5,8,8.5,11.9c3,3.8,6.2,7.5,9.6,11c6.8,7,14.3,13.4,22.5,18.5c4.1,2.6,8.5,4.9,12.9,6.8
						c4.5,1.9,9.1,3.5,14,4.3c-4.9-0.7-9.5-2.2-14.1-4c-4.5-1.8-8.9-4-13.2-6.6c-8.4-5.1-16-11.4-22.9-18.3c-3.4-3.5-6.7-7.2-9.7-11
						c-3-3.9-5.9-7.8-8.6-12c-0.7-1-1.4-2-2-3.1l-1.9-3.1c-1.3-2.1-2.4-4.3-3.7-6.4c-1.2-2.1-2.3-4.3-3.4-6.5l-3.4-6.5
						c-9.2-17.2-21.6-32.7-36.6-45.1c-7.5-6.2-15.7-11.6-24.4-16.1c-4.3-2.3-8.8-4.3-13.3-6C86.2,232.6,81.5,231.1,76.7,230.1z"/>
				</g>
			</g>
			<g>
				<g>
					<path class="st2" d="M348.2,124.2c-6,6.4-11.5,13.3-16.4,20.6c-4.9,7.3-9.3,14.9-13,22.9c-3.7,7.9-6.8,16.2-9.3,24.6l-1.7,6.4
						l-1.4,6.4l-1.2,6.5l-0.9,6.5l0.8-6.5l1.1-6.5l1.4-6.5l1.6-6.4c2.4-8.5,5.4-16.8,9.2-24.8c3.8-8,8.1-15.7,13.1-22.9
						C336.5,137.3,342.1,130.5,348.2,124.2z"/>
				</g>
				<g>
					<path class="st2" d="M607.3,592.9c-7.4-2.1-14.8-3.8-22.3-5.2c-7.5-1.4-15.1-2.4-22.7-3.1c-7.6-0.7-15.2-1-22.9-0.9l-5.7,0.1
						l-5.7,0.3l-5.7,0.4l-5.7,0.5l5.7-0.7l5.7-0.5l5.7-0.3l5.7-0.2c7.7-0.2,15.3,0.1,22.9,0.8c7.6,0.7,15.2,1.7,22.7,3.2
						C592.6,588.7,600,590.6,607.3,592.9z"/>
				</g>
				<g>
					<path class="st2" d="M113.2,578.2c3.6-2.6,7.5-4.7,11.7-6.3c4.1-1.6,8.5-2.7,12.9-3.3c4.4-0.6,8.9-0.7,13.3-0.3l3.3,0.4
						l3.3,0.6l3.2,0.8l3.2,1l-3.2-0.9l-3.2-0.7l-3.3-0.5l-3.3-0.3c-4.4-0.3-8.8-0.2-13.2,0.4c-4.4,0.6-8.7,1.7-12.8,3.2
						C120.9,573.8,116.9,575.8,113.2,578.2z"/>
				</g>
			</g>
			<g>
				<g>
					<path class="st3" d="M487.8,441.4c-4.7-0.8-9.5-1.4-14.2-1.9c-4.7-0.5-9.5-1-14.3-1.3c-9.5-0.6-19.1-0.8-28.6-0.3
						c-9.5,0.4-19.1,1.6-28.3,3.9c-4.6,1.2-9.1,2.8-13.4,4.9c-4.3,2-8.4,4.6-11.9,7.9c3.4-3.4,7.5-6,11.8-8.1
						c4.3-2.1,8.8-3.7,13.5-5c9.3-2.4,18.8-3.6,28.4-4.1c9.6-0.4,19.1-0.2,28.7,0.5C468.9,438.6,478.4,439.7,487.8,441.4z"/>
				</g>
				<g>
					<path class="st3" d="M169.6,421.4c3.3,3,6.9,5.6,10.5,8.1l2.8,1.8l2.8,1.7c1.9,1.2,3.8,2.2,5.8,3.2c7.8,4.1,16,7.5,24.4,10.3
						c4.2,1.3,8.4,2.7,12.7,3.7l3.2,0.8c1.1,0.3,2.1,0.6,3.2,0.8l6.5,1.3c1.1,0.2,2.2,0.5,3.3,0.6l3.3,0.5l6.6,0.9
						c4.4,0.5,8.8,0.9,13.2,1.3c-4.4-0.4-8.8-0.6-13.3-1.1l-6.6-0.9l-3.3-0.5c-1.1-0.2-2.2-0.4-3.3-0.6l-6.5-1.3
						c-1.1-0.2-2.2-0.5-3.2-0.7l-3.2-0.8c-4.3-1-8.6-2.4-12.8-3.7c-8.4-2.9-16.6-6.3-24.4-10.5C183.6,432.3,176.1,427.4,169.6,421.4
						z"/>
				</g>
				<g>
					<g>
						<path class="st3" d="M375.9,467.5c3.7-2,7.6-3.6,11.6-5c4-1.4,8-2.6,12.2-3.5c8.2-1.9,16.7-3,25.1-3.4
							c16.9-0.7,33.9,1.3,50.2,5.6c16.4,4.2,32.1,10.8,47.1,18.6c0.9,0.5,1.9,1,2.8,1.5l2.8,1.6l5.5,3.1c3.6,2.1,7.2,4.4,10.8,6.6
							l10.5,7.1l10.2,7.5c-13.5-10.1-27.7-19.3-42.7-27.1c-15-7.8-30.7-14.2-47-18.4c-16.3-4.3-33.2-6.4-50.1-5.7
							c-8.4,0.4-16.8,1.4-25,3.3c-4.1,0.9-8.2,2-12.2,3.4C383.6,464,379.6,465.5,375.9,467.5z"/>
					</g>
					<g>
						<path class="st3" d="M345.2,501.1c0.9,5.6,2.7,11.1,4.8,16.3c2.2,5.2,4.8,10.3,7.9,15.1c6.1,9.6,14,18,22.9,25
							c4.4,3.6,9.2,6.7,14,9.7l3.7,2.1c0.6,0.3,1.2,0.7,1.9,1l1.9,1l3.8,1.9l3.9,1.7c2.6,1.2,5.3,2.1,7.9,3.2c1.3,0.5,2.7,1,4,1.4
							l4,1.4c2.7,0.8,5.5,1.6,8.2,2.4l8.3,2l-8.3-1.9c-2.7-0.8-5.5-1.5-8.2-2.3c-5.4-1.7-10.8-3.6-16-5.9l-3.9-1.7l-3.8-1.9
							l-1.9-0.9c-0.6-0.3-1.3-0.7-1.9-1l-3.7-2.1c-4.9-2.9-9.7-6.1-14.1-9.6c-8.9-7.2-16.8-15.6-22.9-25.2
							c-3.1-4.8-5.7-9.9-7.9-15.2C347.8,512.2,346,506.7,345.2,501.1z"/>
					</g>
					<g>
						<path class="st3" d="M356.8,494.8c2.7,5.6,6.5,10.6,10.6,15.3l1.5,1.8c0.5,0.6,1.1,1.1,1.6,1.7l3.3,3.4
							c2.3,2.1,4.6,4.2,6.9,6.3c9.5,8.1,20.1,14.8,31.1,20.6c10.9,6,22.6,10.6,34.2,15c2.9,1,5.9,1.9,8.9,2.9c3,0.9,5.9,1.9,8.9,2.8
							l18.1,4.7l-18.2-4.5c-3-0.9-6-1.8-8.9-2.8c-3-0.9-6-1.8-8.9-2.8c-11.7-4.3-23.4-8.8-34.3-14.9c-11-5.9-21.6-12.6-31.1-20.8
							c-2.3-2.1-4.6-4.2-6.9-6.3l-3.2-3.4c-0.5-0.6-1.1-1.1-1.6-1.7l-1.5-1.8C363.1,505.5,359.4,500.4,356.8,494.8z"/>
					</g>
					<g>
						<path class="st3" d="M371.9,486.1l12.7,5.4l12.6,5.6c8.4,3.8,16.8,7.6,25.1,11.5c8.3,4,16.6,8,24.8,12.3
							c8.2,4.2,16.3,8.6,23.9,13.8c-2-1.2-3.9-2.5-5.9-3.6c-2-1.1-4-2.3-6-3.4l-6.1-3.3l-6.1-3.2c-8.2-4.2-16.5-8.2-24.8-12.1
							c-8.3-4-16.7-7.9-25-11.7L371.9,486.1z"/>
					</g>
				</g>
				<g>
					<path class="st3" d="M420.3,436.5l7-2.3l6.8-2.7l6.7-3l6.6-3.3c8.7-4.6,16.9-10,24.5-16.1c7.7-6.1,14.8-12.8,21.2-20.2l4.7-5.6
						l4.4-5.9l4.2-6.1l3.9-6.3l-3.8,6.3l-4.1,6.1l-4.4,5.9l-4.7,5.7c-6.4,7.4-13.5,14.3-21.2,20.4c-7.7,6.1-16,11.4-24.7,16
						l-6.6,3.2l-6.7,2.9l-6.9,2.6L420.3,436.5z"/>
				</g>
				<g>
					<path class="st3" d="M169.5,363.8l4.6,5.9l4.9,5.6l5.1,5.4l5.4,5.2c7.4,6.7,15.4,12.7,23.9,17.8c8.5,5.2,17.5,9.6,26.8,13
						l7.1,2.4l7.2,2.1l7.3,1.7l7.3,1.4l-7.4-1.2l-7.3-1.6l-7.2-2l-7.1-2.4c-9.4-3.4-18.4-7.7-27-12.9c-8.5-5.2-16.5-11.2-23.9-18
						l-5.4-5.2l-5.1-5.5l-4.8-5.7L169.5,363.8z"/>
				</g>
				<g>
					<path class="st3" d="M179.2,406.1l5,3.4l5.1,3.2l5.2,3l5.3,2.8c7.2,3.6,14.7,6.5,22.3,8.9c7.6,2.4,15.5,4.2,23.4,5.4l6,0.8
						l6,0.5l6,0.3l6,0.1l-6,0.1l-6-0.2l-6-0.5l-6-0.7c-8-1.1-15.8-2.9-23.5-5.2c-7.7-2.4-15.1-5.5-22.3-9.1l-5.3-2.8l-5.2-3
						l-5.1-3.3L179.2,406.1z"/>
				</g>
				<g>
					<path class="st3" d="M290.7,489.1l-7.4,0.5l-7.4,0.5l-7.4,0.6l-7.4,0.7c-9.9,1.1-19.7,2.6-29.3,4.8c-9.7,2.2-19.2,5.1-28.2,9.2
						c-2.2,1-4.5,2.2-6.7,3.3c-2.2,1.2-4.3,2.5-6.5,3.7l-6.2,4.1l-5.9,4.6l5.8-4.7l6.1-4.2c2.1-1.2,4.3-2.5,6.4-3.7
						c2.2-1.1,4.4-2.2,6.7-3.3c9-4.1,18.6-7.1,28.2-9.4c9.7-2.2,19.5-3.6,29.4-4.7l7.4-0.7l7.4-0.6l7.4-0.4L290.7,489.1z"/>
				</g>
				<g>
					<path class="st3" d="M295,500.5l-10.2,2.8l-10.2,2.7l-20.4,5.4l-20.4,5.3c-3.4,0.9-6.8,1.8-10.3,2.4c-3.5,0.6-7,0.9-10.5,0.4
						c3.5,0.4,7,0,10.5-0.7c3.4-0.7,6.8-1.6,10.2-2.5l20.4-5.4l20.4-5.3l10.2-2.6L295,500.5z"/>
				</g>
				<g>
					<path class="st3" d="M269,459.6c-5.5-0.5-11-1.1-16.6-1.5c-5.5-0.5-11.1-0.9-16.6-1.2c-11.1-0.6-22.2-0.8-33.2,0.1
						c-11,0.8-22,2.6-32.7,5.8c-5.3,1.6-10.5,3.6-15.5,5.9c-5,2.3-9.9,5.1-14.5,8.2c4.5-3.2,9.3-6,14.3-8.4c5-2.4,10.2-4.4,15.5-6
						c10.6-3.3,21.6-5.2,32.7-6c11.1-0.8,22.2-0.6,33.3,0.1c5.5,0.3,11.1,0.8,16.6,1.3C258,458.4,263.5,459,269,459.6z"/>
				</g>
				<g>
					<path class="st3" d="M195.7,304.9c1.6,5.2,3.8,10.2,6.7,14.9c2.8,4.7,6.2,9,10,12.9c3.8,3.9,8.1,7.3,12.7,10.2
						c4.6,2.9,9.6,5.2,14.8,6.9c-5.3-1.5-10.3-3.7-15-6.6c-4.7-2.8-9-6.3-12.9-10.2c-3.8-3.9-7.2-8.3-10-13
						C199.2,315.3,197.1,310.2,195.7,304.9z"/>
				</g>
			</g>
		</g>
		<g>
			<g>
				<path class="st4" d="M297.9,342.4c0,0-17.4-63.5,36.6-95.6c0,0,37.8,36.7,25.2,93L297.9,342.4z"/>
				<path class="st1" d="M320.6,506.3c0,0,49.3,0.9,55.3-38.8c6-39.7-15.4-69.8,24.7-91.9c40.1-22,1.3-43.2-40.9-35.8
					c0,0-30.9-24.2-39.9-16.7c-9.1,7.5-19.8,27-39.9,20.5c-20.2-6.5-46-11.5-48.8,10.1c-2.8,21.5,38.3,28.5,39,61.2
					C270.7,447.6,250.5,483.7,320.6,506.3z"/>
			</g>
			<g>
				<path class="st5" d="M353.2,318.7l-5.3-10.4l-5.2-10.4l-5.2-10.4c-0.9-1.7-1.7-3.6-3.3-4.6c-0.8-0.5-1.7-0.8-2.6-0.7
					c-0.9,0-1.8,0.3-2.7,0.7c-1.7,0.9-3.2,2.2-4.4,3.6c-0.6,0.7-1.2,1.5-1.7,2.3c-0.5,0.8-1.1,1.6-1.6,2.4c-2.1,3.3-4,6.7-5.7,10.1
					c-3.5,6.9-6.3,14.2-8.4,21.7c1-3.8,2.1-7.5,3.4-11.1c1.4-3.7,2.9-7.2,4.6-10.7c1.7-3.5,3.6-6.9,5.7-10.2c0.5-0.8,1-1.6,1.6-2.5
					c0.5-0.8,1.1-1.6,1.7-2.4c1.3-1.5,2.8-2.8,4.5-3.8c0.9-0.4,1.9-0.7,2.9-0.8c1,0,2,0.3,2.9,0.8c1.7,1.2,2.5,3.1,3.4,4.8l5.1,10.5
					l5.1,10.5L353.2,318.7z"/>
			</g>
			<g>
				<g>
					<path class="st3" d="M291.1,352.1c0.4,1.5,1.2,2.8,2.3,4c1,1.1,2.3,2,3.6,2.8c2.6,1.6,5.5,2.7,8.3,4.2c2.8,1.4,5.3,3.3,7.4,5.6
						c2.1,2.3,3.7,5,5,7.8c1.3,2.8,2.2,5.8,2.8,8.8c0.7,3,1.1,6.1,1.3,9.2c0.3,3.1,0.4,6.2,0.4,9.3c0,3.1,0,6.2,0,9.3
						c-0.3,12.3-1.1,24.7-2.7,36.9c-0.8,6.1-1.7,12.2-2.8,18.3c-1.1,6.1-2.4,12.1-3.8,18.1c1.3-6,2.5-12.1,3.5-18.2
						c1-6.1,1.9-12.2,2.7-18.3c1.5-12.2,2.3-24.6,2.5-36.9c0-3.1,0.1-6.2,0.1-9.2c0-3.1-0.1-6.2-0.3-9.2c-0.5-6.1-1.6-12.3-4-17.9
						c-1.2-2.8-2.9-5.5-4.9-7.7c-2-2.3-4.5-4.1-7.3-5.5c-2.7-1.4-5.6-2.6-8.2-4.3c-1.3-0.8-2.6-1.8-3.6-2.9
						C292.3,355,291.5,353.6,291.1,352.1z"/>
				</g>
				<g>
					<path class="st3" d="M396.4,367.9c-3.5,0.8-6.8,2.2-9.9,3.9c-3.1,1.7-6,3.8-8.7,6.2c-5.2,4.8-9.3,10.8-11.6,17.6
						c-1.2,3.3-1.9,6.8-2.5,10.3l-1.8,10.5l-1.8,10.5l-1.8,10.5l1.6-10.6l1.7-10.6l1.7-10.6c0.6-3.5,1.3-7,2.4-10.4
						c2.4-6.8,6.5-12.9,11.9-17.6c2.7-2.4,5.6-4.5,8.8-6.1C389.5,369.9,392.9,368.7,396.4,367.9z"/>
				</g>
			</g>
		</g>
	</g>
	<g>
		<g>
			<path class="st6" d="M389,246.8c-0.4,10.5-1.6,21.5,2.9,30.9c1.7,3.6,4.4,6.9,8.2,8.2c7.6,2.5,15-4.7,18.2-12
				c7.3-16.4,4.6-35.4-0.3-52.6c-3.1-10.7-6.9-21.1-11.6-31.2c-2.4-5.2-5.4-10.7-10.6-13.2c-16.7-7.7-13.4,13.1-11.5,20.9
				C388,213.9,389.7,230.4,389,246.8z"/>
			<path class="st6" d="M578.4,557.1c2.7,1.2,5.8,2.2,8.5,1.1c3.6-1.4,5-5.7,5.4-9.5c1.3-11.6-2.5-23.6-9.5-32.9
				c-7.1-9.3-17.2-16.1-28.2-20.1c-18.7-6.8-51.3,5.7-26.7,24.6C543.8,532.5,559.9,549,578.4,557.1z"/>
			<path class="st6" d="M474.3,309.1c-0.8,1.9-1.3,4.1-0.8,6.2c0.5,2,2.1,3.9,4.2,4.3c2.8,0.4,5.2-1.8,7.3-3.8
				c5.7-5.6,35.2-17.6,26.9-25.3C501.1,280.3,478,299.8,474.3,309.1z"/>
		</g>
		<path class="st7" d="M280.9,465.2c1.6,5.5,6,11.1,11.6,10.5c5.2-0.6,8.2-6.4,8.4-11.6c0.1-5.2-1.7-10.3-2.1-15.5
			c-0.6-6.8,5.4-41.4-10.8-29.5C278.1,426.2,277.9,454.8,280.9,465.2z"/>
	</g>
</g>
</svg>
