<?xml version="1.0" encoding="utf-8"?>
<!-- Generator: Adobe Illustrator 23.1.0, SVG Export Plug-In . SVG Version: 6.00 Build 0)  -->
<svg version="1.1" id="Capa_1" xmlns="http://www.w3.org/2000/svg" xmlns:xlink="http://www.w3.org/1999/xlink" x="0px" y="0px"
	 viewBox="0 0 700 700" style="enable-background:new 0 0 700 700;" xml:space="preserve">
<style type="text/css">
	.st0{fill:#33515A;}
	.st1{fill:#77CACB;}
	.st2{fill:#478881;}
	.st3{opacity:0.65;fill:#478881;}
	.st4{opacity:0.62;fill:#478881;}
</style>
<g>
	<g>
		<g>
			<path class="st0" d="M341.3,610.6c24.8,1.6,49.5-7.5,69.4-22.3c19.9-14.8,35.2-35.2,46.6-57.2c35-67.1,32-144.5,17.7-218.9
				c-5.5-28.6-10.8-56-25.6-81.2c-12-20.3-32.8-43.6-50.7-59c-53.5-45.9-59.8-65.9-106.7-94.4c6.4,79.7,6.1,164.7-3.8,244
				c-2.6,20.6-5.8,41.2-4.8,61.9c0.7,15.5,3.7,30.9,4.5,46.5c1.2,23.1-2.3,46.2-4,69.3c-1.7,23.1-1.5,46.9,6.9,68.5
				C299.1,589.4,318.2,609.2,341.3,610.6z"/>
			<g>
				<g>
					<path class="st1" d="M387.5,379c11.2-12.5,17-26.6,22.3-42.6c5.3-15.9,8.9-32.4,14.2-48.3c2.9-8.6,6.3-17.1,9-25.7
						c4.5-14.4,7.2-29.3,7.9-44.4c0,0-7.6-10-9.1-11.8c0.6,29.3-14.6,56.4-23.3,84.4c-6.3,20.5-8.3,40.9-20.3,58.8
						C388.2,349.4,388.7,374.5,387.5,379z"/>
					<path class="st1" d="M385.3,315.9c15.9-31,17.2-63.4,19.9-98.1c1.1-13.7,2.1-27.7-1.2-41l-1.5-1.3
						c-9.4,29.9-16.6,60.1-20.1,91.3c-0.8,7.2-1,12.9-2.9,19.9L385.3,315.9z"/>
					<path class="st1" d="M367.6,237.7c4.5-31.3,4.4-63.2-0.2-94.4l4.3,4.2c13.9,23.8,13.3,53.8,9.6,81c-1.4,10.6-2.9,23.2-7.3,32.9
						L367.6,237.7z"/>
					<path class="st1" d="M295,241.4c20,33.9,51.6,60.9,88.2,75.2c0.7-1.9,2.2-3.9,0.7-5.3c-10.8-10.6-21.5-21.3-32.3-31.9
						c-4.7-4.7-9.5-9.3-14.6-13.5c-14.1-11.4-31.9-19.5-41.6-34.7L295,241.4z"/>
					<path class="st1" d="M387.6,377.3c-16.4-4.8-28.5-17.3-40.4-29.5c-7.1-7.3-14.2-14.5-20.4-22.5c-5.8-7.4-10.9-15.4-15.9-23.4
						c-5.9-9.4-11.9-18.8-17.8-28.1l0.9-12.7c32.7,31.4,58.9,71.5,93.8,100.5L387.6,377.3z"/>
					<path class="st1" d="M290.3,303.2c2.9,5.8,5.3,11.8,8,17.7c18.1,39.5,47.8,73.7,84.4,97.1c2.7-2.4,3.1-6.4,1-9.3
						c-11.9-16.7-26-31.9-40.6-46.3c-5.7-5.7-11.6-11.2-16.9-17.2c-14.3-16.1-24.7-35.1-34.6-54.2L290.3,303.2z"/>
					<path class="st1" d="M373.9,521.1c-3.4-1.6-6.6-3.5-9.8-5.4c-31.3-19.1-57.6-46.2-76-77.9c0-6.9-1.1-18.2-1.1-18.2
						c21.8,35.8,52.6,66.1,88.9,87.3L373.9,521.1z"/>
					<path class="st1" d="M370.7,537.5c-32.8-15.3-61.5-37.8-84.4-65.9l-0.5,5c21.5,31.1,45.9,61.6,79.1,79.1
						C365,555.7,369.2,543.6,370.7,537.5z"/>
					<path class="st1" d="M354.9,578.7c-16.3-7.6-30.1-19.9-41.6-33.7c-11.2-13.4-20.4-28.3-29.6-43.1l0.5-7.2
						c5.5,4.8,10.5,10.3,14.9,16.2c3.6,4.8,6.7,9.9,10.2,14.8c13,18.3,30.4,33.1,49.3,45.1L354.9,578.7z"/>
					<path class="st1" d="M376.4,269.8c-17.3-3.3-31.7-13.6-44.8-25.4c-12.3-11.1-23.2-23.7-35.5-34.7l0.1-8
						c13.2,6.5,26.3,13.3,37.8,22.3c5.4,4.2,10.5,8.9,15.5,13.6c7.8,7.2,15.6,14.4,23.4,21.6L376.4,269.8z"/>
					<path class="st1" d="M355.2,197.1c-11.2-6.9-18.1-15-27.9-23.7c-9.2-8.1-19.5-15.7-31.4-18.8l0.2,12.8c2.3,1.8,4.2,3.9,6.2,6
						c15,15.4,34.6,26.2,55.7,30.6L355.2,197.1"/>
					<path class="st1" d="M340.6,158.4c-16.6-4.2-32.2-12.4-45.3-23.5l-0.4-9.2c0.2,0,0.4,0.1,0.5,0.1c4.3,1.2,8.5,3,12.2,5.5
						c5.1,3.4,9.3,7.8,14.1,11.5c5.3,4.1,10.4,7.1,16.7,9.5L340.6,158.4z"/>
					<path class="st1" d="M358.4,206.4c5.4-24.7-0.2-54.9-7-79.3l-3.1-3.2c-3.1,18.2,6.5,38.3,0.8,55.9L358.4,206.4z"/>
					<path class="st1" d="M326.7,127.4c0.9-9.3,0.1-17.4-2.2-26.5l7.2,6.5c4.7,11.9,8.8,24.3,7.5,36.9c-0.2,2.4-0.7,4.8-1.3,7.1
						C337.9,151.5,328.8,131.4,326.7,127.4z"/>
					<path class="st1" d="M383.5,424.7c13-4.3,22.9-16.3,30.2-27.8c27.2-43.3,39.2-94.4,45.7-145.2c0,0-3.3-8.6-6.7-14.6
						c-10.1,45.7-24.2,90.4-42.3,133.6c-5.9,14-12.7,28.6-25.4,37L383.5,424.7z"/>
					<path class="st1" d="M380.5,458.7c25.2-21.7,42.8-47.5,57.8-77.3c14.3-28.3,24.5-58.6,32.8-89.2c0,0,5.8,29.7,6.5,33.7
						c-9.8,28.9-20.5,57.5-35.1,84.3c-16.2,29.7-36.8,56.6-64.4,76.2L380.5,458.7z"/>
					<path class="st1" d="M377,496.7c11.7-1.6,21.7-9.3,31-16.8c16.2-13.1,32.2-26.5,46-42.2c13.4-15.2,24.6-32.6,30.5-51.9
						c1.1,13.3,0.1,38.9,0.1,38.9c-19.2,30.7-47.7,54.8-78.4,74.1c-9.6,6.1-19.9,11.9-31,13.8L377,496.7z"/>
					<path class="st1" d="M371.9,531.5c20.1-6.4,37.8-18.8,54.8-31.6c20.3-15.2,40.3-31.4,55.8-51.4c0,0-1.9,15.7-4.9,27.5
						c-10.4,8.8-20.9,17.5-31.3,26.3c-23.8,19.9-48.9,40.5-79.1,47.1C367.2,549.3,371.3,537.4,371.9,531.5z"/>
					<path class="st1" d="M356,576.5c17.8-2,35.2-7.8,50.7-16.9c20.6-12.2,36.2-29.6,57-41.5c0,0,5.8-12.8,7.3-18.7
						c-16.2,12.5-28.5,21.9-44.7,34.4c-5.9,4.6-11.9,9.1-18.4,12.8c-6.3,3.5-13,6.1-19.8,8.7c-9,3.5-18,7-27.1,10.5
						C360.9,565.8,357.3,574.4,356,576.5z"/>
					<path class="st1" d="M380.6,456.1c-36.6-28.5-72.8-59.4-96.6-99.1c0,0-1.1,15.1-0.9,21.1c4.6,8.7,9.3,17.5,13.9,26.2
						c4.3,8.1,8.6,16.2,13.8,23.8c16.9,24.6,42.1,41.8,67.1,58.3l0.7-8c-17.4-11.5-33.9-26.7-46.3-43.4
						c14.1,12.7,29.7,22.2,47.6,28.4L380.6,456.1z"/>
				</g>
				<g>
					<path class="st0" d="M385.7,299.4c6.1-13.3,9-27.9,8.6-42.5C389.2,269.9,386,285.4,385.7,299.4z"/>
					<path class="st0" d="M393.2,415.7c25.7-29.3,39.2-67.3,49.9-104.8c6-21,11.3-42.4,12.2-64.2c-5.3,20.2-9.9,40.5-15.2,60.7
						c-2.3,8.6-4.6,17.3-7.3,25.8c-9,28.2-22.5,55-40,78.9c-0.7,1-1.5,2.2-1.1,3.4C392.3,416.7,393.5,416.9,393.2,415.7z"/>
					<path class="st0" d="M383.5,470.4c24.3-19.4,43.6-45,55.5-73.8c-13.9,25.9-32.6,49.3-55.1,68.3c-0.4,0.4-0.9,0.7-1.1,1.2
						c-0.3,0.5-0.4,1-0.5,1.5c-0.2,1-0.5,2.1-0.7,3.1c-0.1,0.3-0.1,0.7,0.1,0.9c0.3,0.3,0.7,0.1,1,0
						C383.6,471.1,382.6,471.1,383.5,470.4z"/>
					<path class="st0" d="M325.9,311.4c13.7,14.9,27.5,29.8,43,42.8c5.7,4.8,11.6,9.2,16.9,14.3c0.2,1.4,0.1,2.8-0.4,4
						c-4.3-2.5-8-5.8-11.7-9.1c-15.6-14-30.4-29-44.2-44.8c-2.9-3.3-5.8-6.8-7.6-10.8C323.1,309,324.7,310.1,325.9,311.4z"/>
					<path class="st0" d="M475,424.2c0,0-14.4,22-45,49.2s-42.2,25.7-53.2,33l1.1-3.6c0,0,15.3-5.5,29.4-16.3s27.2-21.2,39.5-32.3
						C459.2,443.1,475,424.2,475,424.2z"/>
					<path class="st0" d="M368.7,544.6c0,0,7.1-2.5,23.3-12.8c16.2-10.2,23.7-15.2,23.7-15.2s-17,11.9-26.4,13.9
						c-9.4,2-18.5,6.9-18.5,6.9L368.7,544.6z"/>
					<path class="st0" d="M356.7,575.1c0,0,10.4-2.3,19.7-6.9s17.1-7.5,17.1-7.5s-28.5,9.5-34.8,10L356.7,575.1z"/>
					<path class="st0" d="M346.2,197.2c0,0-19.3-7.4-39.7-28.1C306.6,169.1,334.4,190.4,346.2,197.2z"/>
					<path class="st0" d="M381.1,313.2c0,0-23.1-10.7-47.6-36.8c0,0,33.2,29.2,48,35.2L381.1,313.2z"/>
				</g>
			</g>
		</g>
		<g>
			<path class="st2" d="M293,78.8c4.1,4.2,8,8.6,11.6,13.1c3.6,4.6,7,9.3,10.2,14.2c6.4,9.8,12,20.1,17,30.7
				c5,10.6,9.5,21.4,13.8,32.2c4.3,10.9,8.3,21.9,12,33c7.5,22.2,13.8,44.7,19,67.5c2.6,11.4,4.9,22.9,7,34.4
				c2.1,11.5,3.8,23.1,4.8,34.8c1,11.7,0.9,23.5,0.2,35.1c-0.7,11.7-1.9,23.3-2.9,35l-6.4,69.8c-1.1,11.6-2.1,23.3-3.8,34.9
				c-1.7,11.6-3.9,23.1-7.5,34.3c-3.6,11.2-8.3,21.9-13.8,32.3c-5.4,10.4-11.6,20.3-18.4,29.8c6.7-9.6,12.7-19.6,18-30
				c5.3-10.4,9.9-21.2,13.3-32.3c3.4-11.1,5.6-22.6,7.2-34.2c1.6-11.6,2.5-23.2,3.5-34.8l6.1-69.8c2-23.3,4.7-46.6,2.6-69.8
				c-0.9-11.6-2.7-23.1-4.7-34.6c-2-11.5-4.3-22.9-6.9-34.3c-5.1-22.8-11.5-45.3-18.7-67.4c-3.6-11.1-7.6-22.1-11.7-33
				c-4.2-10.9-8.6-21.7-13.5-32.3c-4.9-10.6-10.3-20.9-16.6-30.8c-3.1-4.9-6.5-9.7-10-14.4C300.9,87.5,297.1,83.1,293,78.8z"/>
		</g>
	</g>
	<g>
		<path class="st3" d="M364.4,150.2c-3.6-3.7-7.2-7.5-10.9-11c-1-1-2.2-2-3.6-1.7c-1.5,0.2-2.4,2-2.2,3.5s1.1,2.8,1.9,4.1
			c14,19.6,31.4,36.4,46.5,55.1c20.6,25.4,37,54.1,48.5,84.7c2.2,5.9,4.2,11.8,6.9,17.5c0.4,0.8,0.8,1.7,1.6,2.2
			c1.1,0.8,2.7,0.6,3.9,0c4.3-2.1,4.9-7.9,4.6-12.7c-2.9-47.3-34.7-80.5-67-112C384.5,170,374.3,160.3,364.4,150.2z"/>
		<path class="st3" d="M474.2,443.5c-3.2,25.1-7.4,50.8-20.4,72.5c-6.5,10.8-15.1,20.3-24.1,29.2c-2.7,2.7-5.5,5.4-8.9,7.1
			c-3.4,1.7-7.6,2.2-11,0.5c-3.9-1.9-6-6.3-6.3-10.6c-0.4-4.3,0.8-8.6,1.9-12.7c1.9-7.3,3.9-14.6,7-21.4c2.7-5.9,6.2-11.4,9.6-16.9
			c11.4-18.6,21.8-37.8,30.3-57.9c6.7-15.9,12.3-32.6,12.5-49.8c0.1-10.4-1.7-21-0.8-31.2c0.4-4.5,6.9-5.1,8.2-0.8
			c1.4,4.9,1.6,10.6,2.4,14.9c1.3,6.8,2.1,13.9,2.6,20.9C478.5,405.9,476.6,424.8,474.2,443.5z"/>
		<path class="st3" d="M314.1,132.2c-0.9-1.6-2.1-3.5-4-3.6c-2.1-0.1-3.6,1.9-4.4,3.9c-2.9,7.4-0.7,15.7,0.7,23.5
			c2,11.2,2.5,22.6,3,34c0.2,4.3,0.5,8.8,2.2,12.7c1.7,4,5.2,7.5,9.6,7.9c5,0.5,9.7-3.4,11.6-8.1c4.2-10.5-0.8-22.7-4.3-32.6
			C323.7,157.1,320.8,144.3,314.1,132.2z"/>
	</g>
	<g>
		<path class="st4" d="M352.4,565.2c2.2-5.9,4.2-12,4.7-18.3c0.5-6.3-0.7-12.9-4.3-18c-3.1-4.4-7.8-7.4-12-10.6
			c-13.2-9.9-24-23-31.3-37.9c-2.7-5.5-4.9-11.3-8.4-16.4c-0.5-0.7-1-1.4-1.9-1.6c-1.3-0.3-2.5,0.8-3.2,2c-3.3,4.9-4.3,10.8-5,16.6
			c-2.8,23.1-1,46.6,5.2,69c2.5,9,5.8,18,10.7,26c4.5,7.2,10.2,13.6,15.9,19.9c1.9,2.1,4,4.4,6.6,5.5c8.2,3.6,10.9-7.9,13.5-13.5
			C346.4,580.5,349.6,572.9,352.4,565.2z"/>
		<path class="st4" d="M305.8,342.4c-1.2-3.2-2-6.4-2.3-9.8c-0.3-3.7,0.2-8.9,6.3-8.8c2.3,0,4.3,1.2,5.8,2.9
			c8.8,9.7,20.6,15.7,31.5,22.7c9.8,6.4,19.4,14.2,24,25c3.1,7.4,3.7,15.6,3.8,23.6c0,6.8,0.7,21.2-2.4,30c-1.2,3.4-5.3,4.7-8.2,2.5
			C337.4,410,317.1,372.2,305.8,342.4z"/>
	</g>
</g>
</svg>
