<?xml version="1.0" encoding="utf-8"?>
<!-- Generator: Adobe Illustrator 23.1.0, SVG Export Plug-In . SVG Version: 6.00 Build 0)  -->
<svg version="1.1" id="Capa_1" xmlns="http://www.w3.org/2000/svg" xmlns:xlink="http://www.w3.org/1999/xlink" x="0px" y="0px"
	 viewBox="0 0 700 700" style="enable-background:new 0 0 700 700;" xml:space="preserve">
<style type="text/css">
	.st0{fill:#EC7057;}
	.st1{fill:#F2F2F2;}
	.st2{fill:#C63C4C;}
	.st3{fill:#33515A;}
	.st4{fill:#B4432F;}
	.st5{opacity:0.5;fill:#EC7057;}
	.st6{fill:#273C5B;}
	.st7{fill:#F8E1CE;}
	.st8{opacity:0.48;fill:#EC7057;}
	.st9{opacity:0.64;fill:#C63C4C;}
	.st10{opacity:0.6;fill:#C63C4C;}
	.st11{opacity:0.42;fill:#EC7057;}
	.st12{opacity:0.42;fill:#C63C4C;}
</style>
<g>
	<path class="st0" d="M454.4,176.8c11.9-10.3,28-16.9,43.3-13.7c9.9,2.1,18.5,7.9,28,11.5c9.9,3.8,21.1,5.4,29.2,12.3
		c15.8,13.6,11.9,40.6,25.8,56.1c7,7.8,17.8,11.9,23.3,20.8c3.3,5.4,4.1,11.9,7.2,17.3c2.3,4.2,5.9,7.6,7.9,12
		c5.5,12.2-3,25.8-11.9,35.8c-5.9,6.7-12.7,15-9.9,23.5c2.6,8.2,12.7,11.7,16.6,19.3c4,8,0.1,17.5,0.8,26.4
		c0.9,11.5,9.6,20.9,12.6,32.1c3.3,12.1-0.8,25.8-10.1,34.2c-8.7,7.8-21.1,10.9-28.8,19.7c-2.1,2.4-3.9,5.5-3.3,8.6
		c0.4,2.4,2.1,4.3,3.3,6.4c5.5,9.5,1,22.3-7.4,29.4c-8.4,7.1-19.5,10-30.2,12.5c-10.7,2.5-21.8,5.1-30.5,11.9
		c-4.9,3.9-9.2,9.2-15.3,10.5c-5.7,1.2-11.7-1.6-15.8-5.7s-6.7-9.5-9.2-14.8c-11.1-23.3-22.3-46.5-33.4-69.8
		c-9.5-19.8-20-40.7-39.2-51.4c-11-6.1-23.8-8.2-36.1-11c-2.2-0.5-4.6-1.2-5.9-3c-0.8-1.1-1-2.6-1.2-3.9
		c-6.8-46.9,13.2-93.2,34-135.8C413.1,237.2,427.7,199.8,454.4,176.8z"/>
	<g>
		<path class="st0" d="M370.7,412.6c-3.7-31.1,0.1-63,10.8-92.3c11.7-31.8,31.3-60.4,42-92.6c3.7-11.3,6.3-23.9,1.8-34.9
			c-1.4-3.4-3.3-6.5-4.3-10c-1.5-5.7-0.1-11.7-0.8-17.5c-1.2-10.4-9-19.2-18.3-24c-9.3-4.7-20.1-6-30.5-6.1
			c-6.2-0.1-12.6,0.2-18.6-1.4c-6-1.6-11.9-5.3-14.2-11.1c-1.1-2.8-1.3-6-2.4-8.8c-3.8-9.9-16.2-12.9-26.8-13.1
			c-19.2-0.4-38.4,3.8-55.6,12.2c-5.4,2.7-11.3,6.6-11.9,12.6c-0.3,2.4,0.4,4.8,0.1,7.1c-0.6,6.1-6.5,10.4-12.3,12.4
			c-5.8,2-12.2,2.8-17.4,6.1c-7.3,4.7-10.7,13.3-13.8,21.4c-2.7,7.2-5.3,14.3-8,21.5c27.1,6.2,48.5,30.8,61.8,55.2
			c13.3,24.4,21.3,51.4,34.7,75.7c2.6,4.8,5.5,9.5,7.6,14.5c2.2,5.1,3.6,10.5,5,15.9c3,11.3,6.2,22.6,11.9,32.8
			c5.7,10.2,14.1,19.3,24.9,23.6C347.3,416.2,359.1,414.3,370.7,412.6z"/>
		<path class="st1" d="M370.7,412.6c-2.8-23.6-1.3-47.6,4.2-70.7c1.4-5.8,3.1-11.5,4.9-17.1c1.9-5.6,4.1-11.1,6.4-16.6
			c4.7-10.9,10.1-21.5,15.4-32c5.4-10.6,10.7-21.2,15.4-32.1c2.3-5.4,4.4-11,6.3-16.6c1.9-5.6,3.4-11.4,3.9-17.3
			c0.6-5.9,0.1-11.9-2.1-17.4c-1.1-2.7-2.6-5.3-3.7-8.1c-1.1-2.8-1.4-5.8-1.4-8.8c0-3,0.2-5.9,0.1-8.9c-0.1-2.9-0.8-5.9-1.9-8.6
			c-2.2-5.5-6.2-10.1-10.9-13.6c-4.7-3.6-10.3-5.8-16-7.3c-5.7-1.4-11.7-2-17.6-2.2c-5.9-0.2-11.9,0.2-17.8-0.8
			c-2.9-0.5-5.8-1.3-8.5-2.6c-2.7-1.3-5.1-3.2-7-5.6c-0.9-1.2-1.7-2.5-2.2-3.9c-0.5-1.4-0.9-2.9-1.2-4.3c-0.3-1.4-0.6-2.9-1.2-4.3
			c-0.3-0.7-0.6-1.3-0.9-2c-0.4-0.6-0.7-1.3-1.2-1.8c-1.8-2.3-4.2-4.1-6.8-5.4c-2.6-1.3-5.5-2.2-8.4-2.7c-5.8-1.2-11.8-1.1-17.7-0.8
			c-5.9,0.3-11.8,1-17.6,2.2c-5.8,1.2-11.5,2.7-17.1,4.7c-2.8,1-5.5,2.1-8.2,3.3c-2.7,1.2-5.4,2.4-7.9,4c-2.5,1.5-4.9,3.4-6.4,5.9
			c-0.8,1.2-1.3,2.6-1.6,4c-0.3,1.4-0.1,2.9,0,4.4c0.1,1.5,0.2,3-0.2,4.5c-0.3,1.5-1,2.9-1.8,4.1c-1.7,2.5-4.2,4.3-6.9,5.7
			c-5.4,2.8-11.4,3.4-16.9,5.6c-1.4,0.6-2.7,1.2-3.9,2c-1.2,0.8-2.4,1.7-3.4,2.7c-2.1,2.1-3.8,4.5-5.2,7.1
			c-2.9,5.2-4.7,10.8-6.8,16.4l-6.2,16.7l-0.1-0.2c6.2,1.4,12.2,3.9,17.8,7c5.6,3.1,10.7,7,15.5,11.2c9.6,8.5,17.5,18.7,24.2,29.5
			c6.7,10.9,12,22.5,17,34.3c5,11.7,9.7,23.6,15.1,35.2c2.7,5.8,5.6,11.5,8.7,17c1.6,2.8,3.1,5.6,4.5,8.4c1.4,2.9,2.5,5.9,3.5,8.9
			c1.9,6.1,3.4,12.3,5.2,18.4c1.8,6.1,3.8,12.2,6.4,18c2.6,5.8,5.9,11.4,10,16.3c4.1,4.9,9,9.1,14.7,12c5.7,3,12.1,4.2,18.5,4.2
			C358,414.5,364.3,413.5,370.7,412.6z M370.7,412.6c-6.3,1-12.6,1.9-19,1.9c-6.4,0-12.8-1.2-18.5-4.1c-5.7-2.9-10.6-7.1-14.7-12
			c-4.1-4.9-7.4-10.4-10-16.3c-2.6-5.8-4.6-11.9-6.4-18c-1.8-6.1-3.2-12.3-5.2-18.4c-1-3-2.1-6-3.5-8.9c-1.4-2.9-2.9-5.7-4.5-8.4
			c-3.1-5.6-6.1-11.2-8.8-17c-5.4-11.6-10.1-23.4-15.1-35.2c-5-11.7-10.3-23.4-17-34.2c-6.7-10.8-14.6-21-24.2-29.5
			c-4.8-4.2-9.9-8-15.5-11.1c-5.5-3.1-11.5-5.5-17.7-7l-0.2,0l0.1-0.2l6.2-16.7c2.1-5.5,3.9-11.2,6.8-16.4c1.4-2.6,3.2-5.1,5.3-7.2
			c1.1-1.1,2.3-2,3.5-2.8c1.3-0.8,2.6-1.5,4-2c5.5-2.3,11.6-2.9,16.8-5.6c2.6-1.4,5-3.2,6.7-5.6c0.8-1.2,1.5-2.5,1.8-4
			c0.3-1.4,0.3-2.9,0.2-4.4c-0.1-1.5-0.3-3,0-4.5c0.2-1.5,0.8-2.9,1.6-4.2c1.6-2.6,4.1-4.5,6.6-6c2.5-1.6,5.3-2.8,8-4
			c2.7-1.2,5.5-2.3,8.3-3.3c5.6-2,11.3-3.6,17.2-4.7c5.8-1.2,11.7-1.9,17.7-2.2c5.9-0.3,11.9-0.3,17.8,0.9c2.9,0.6,5.8,1.5,8.5,2.8
			c2.7,1.3,5.1,3.2,7,5.6c0.5,0.6,0.8,1.2,1.2,1.9c0.4,0.6,0.6,1.4,1,2c0.5,1.4,0.9,2.9,1.2,4.3c0.3,1.4,0.6,2.9,1.2,4.3
			c0.5,1.4,1.2,2.7,2.1,3.8c1.8,2.3,4.2,4.1,6.8,5.5c2.6,1.3,5.5,2.2,8.4,2.6c5.8,0.9,11.8,0.6,17.7,0.8c5.9,0.2,11.9,0.8,17.7,2.2
			c5.7,1.5,11.4,3.7,16.1,7.4c4.7,3.6,8.8,8.2,11,13.8c1.1,2.8,1.8,5.7,1.9,8.7c0.1,3-0.1,5.9-0.1,8.9c0,3,0.3,5.9,1.4,8.7
			c1,2.8,2.6,5.3,3.7,8.1c2.2,5.5,2.7,11.7,2.1,17.6c-0.6,5.9-2.1,11.7-4,17.3c-1.9,5.6-4,11.2-6.4,16.6
			c-4.7,10.9-10,21.5-15.4,32.1c-5.4,10.6-10.8,21.1-15.5,32c-2.3,5.5-4.5,11-6.4,16.6c-1.9,5.6-3.6,11.3-5,17.1
			C369.4,365,367.9,389,370.7,412.6z"/>
	</g>
	<path class="st2" d="M305.6,345.7c-7-14.1-15.5-27.4-21.6-41.9c-3.9-9.4-6.7-19.2-10.5-28.6c-12.1-30.1-34.3-55.7-61.5-73.4
		c-20.2-13.1-45.1-22.1-68.4-15.8c-11.1,3-21,9.2-30.1,16.3c-10,7.8-19.2,16.7-25.6,27.7c-6.4,10.9-9.6,24-7.1,36.4
		c1.4,6.9,4.4,13.3,6.1,20c1.7,6.8,1.9,14.5-2,20.2c-4.2,6.3-12.9,10.2-13.3,17.7c-0.2,5.3,3.9,9.5,7,13.8
		c9,12.2,10.9,28.2,16.8,42.2c5.6,13.1,14.7,24.4,23.7,35.5c2.9,3.5,5.8,7.1,9.6,9.5c11.6,7.5,27.5,2.3,38.2-6.3
		c10.8-8.6,18.9-20.3,30.3-28.1c14-9.6,32.4-12.3,48.6-7.2c4.2,1.3,8.4,3.1,12.7,2.8c4.6-0.3,8.6-2.9,12.9-4.5
		c6.6-2.5,14.1-2.6,20.8-0.3c7.9,2.7,23.7,13.1,24.5-1.7C317.4,368.9,310.3,355.3,305.6,345.7z"/>
	<g>
		<g>
			<path class="st3" d="M374.3,406.7c4.4-5.9,9-11.7,13.9-17.2c4.9-5.5,10.1-10.8,15.5-15.8c10.8-10,22.6-19,35.3-26.6
				c12.7-7.5,26.2-13.6,40.3-17.9c7-2.2,14.2-3.9,21.5-5.2c7.3-1.2,14.6-2,22-2.2c-7.4,0.3-14.7,1.2-21.9,2.5
				c-7.2,1.3-14.4,3-21.4,5.2c-14.1,4.4-27.6,10.5-40.2,18c-12.7,7.5-24.5,16.4-35.3,26.4c-5.4,5-10.6,10.2-15.5,15.7
				C383.4,395.1,378.7,400.8,374.3,406.7z"/>
		</g>
		<g>
			<path class="st3" d="M382.6,407.2c6.3-2.2,12.6-4.4,19.1-6.4c3.2-1,6.4-1.9,9.7-2.7c3.3-0.8,6.5-1.6,9.8-2.1
				c13.2-2.5,26.6-3.7,40-3.6c13.4,0.1,26.8,1.1,40.1,2.9c3.3,0.5,6.6,0.9,9.9,1.5l5,0.8l4.9,0.9c6.6,1.2,13.1,2.6,19.7,4.1
				c-6.6-1.4-13.1-2.7-19.7-3.9l-4.9-0.9l-5-0.8c-3.3-0.6-6.6-1-9.9-1.4c-13.3-1.8-26.7-2.8-40-2.8c-13.4-0.1-26.8,1-39.9,3.5
				c-3.3,0.5-6.6,1.4-9.8,2.1c-3.3,0.7-6.5,1.7-9.7,2.6C395.3,402.9,388.9,405,382.6,407.2z"/>
		</g>
		<g>
			<path class="st3" d="M371.2,404c4.2-8.5,8.5-17,13-25.3c4.5-8.3,9.3-16.5,14.5-24.5c2.6-4,5.2-7.9,8-11.8
				c2.8-3.8,5.6-7.7,8.6-11.3c2.9-3.8,6-7.3,9.1-10.9c1.6-1.8,3.2-3.5,4.8-5.2l2.4-2.6l2.5-2.5c13.3-13.5,28-25.6,43.8-36.2l6-3.9
				c2-1.3,4-2.5,6.1-3.7l3-1.8l3.1-1.7c2.1-1.1,4.1-2.3,6.2-3.4c8.4-4.4,17-8.3,25.8-11.9c-8.7,3.7-17.3,7.7-25.7,12.1
				c-2.1,1.1-4.1,2.3-6.2,3.4l-3.1,1.7l-3,1.8c-2,1.2-4.1,2.4-6.1,3.7l-5.9,3.9c-15.7,10.6-30.4,22.7-43.6,36.3l-2.5,2.5l-2.4,2.6
				c-1.6,1.7-3.2,3.5-4.8,5.2c-3.1,3.6-6.2,7.1-9.1,10.9c-3,3.6-5.8,7.5-8.6,11.3c-2.8,3.8-5.4,7.8-8,11.7c-5.1,8-10,16.1-14.5,24.4
				C379.8,387.1,375.5,395.5,371.2,404z"/>
		</g>
		<g>
			<path class="st3" d="M378.6,406.4l3.8-3.9l3.9-3.8l4.1-3.6l4.2-3.4c5.7-4.5,11.8-8.6,18.1-12.2c6.3-3.6,12.9-6.7,19.7-9.4
				l5.1-1.9l5.2-1.7l5.2-1.5l5.3-1.3L448,365l-5.2,1.6l-5.2,1.8l-5.1,1.9c-6.7,2.7-13.3,5.9-19.6,9.5c-6.3,3.6-12.4,7.6-18.1,12.1
				l-4.2,3.4l-4.1,3.6l-4,3.7L378.6,406.4z"/>
		</g>
		<g>
			<path class="st3" d="M376.9,395.3l3.4-5.6l3.6-5.6l3.7-5.4l3.9-5.3c5.3-7,11-13.8,17.1-20.1c6.2-6.2,12.9-12,20-17.2l5.5-3.7
				l5.6-3.4l5.8-3.1l6-2.8l-5.9,2.9l-5.8,3.2l-5.6,3.5l-5.4,3.7c-7.1,5.1-13.7,11-19.9,17.2c-6.2,6.2-11.9,12.9-17.2,19.9l-3.9,5.3
				l-3.8,5.4l-3.7,5.5L376.9,395.3z"/>
		</g>
		<g>
			<path class="st3" d="M442.9,252.9l-6.6,8l-6.3,8.2l-6.1,8.4l-5.8,8.6c-7.5,11.6-14.3,23.8-20.2,36.3c-5.9,12.5-11,25.4-15.2,38.7
				l-3,10l-2.6,10.1l-2.3,10.1l-2,10.2l1.9-10.2l2.2-10.2l2.6-10.1l2.9-10c4.2-13.2,9.2-26.2,15.1-38.8
				c5.9-12.5,12.7-24.7,20.3-36.3l5.8-8.6l6.1-8.4l6.4-8.2L442.9,252.9z"/>
		</g>
		<g>
			<path class="st3" d="M385,408.5c3-0.8,6.1-0.9,9.2-0.6c3.1,0.3,6.1,0.8,9.1,1.6c6,1.5,11.9,3.5,17.5,6c5.6,2.5,11,5.6,16.1,9.1
				c5.1,3.5,9.8,7.5,14.2,11.9c-2.3-2.1-4.5-4.2-7-6.1c-2.4-2-4.9-3.8-7.4-5.5c-5.1-3.4-10.5-6.5-16.1-9c-5.6-2.6-11.4-4.6-17.4-6.1
				c-3-0.8-6-1.4-9.1-1.7C391.1,407.7,388,407.8,385,408.5z"/>
		</g>
	</g>
	<g>
		<path class="st4" d="M190.8,394.3c3.3-3.8,6.9-7.4,10.7-10.8c3.8-3.3,7.8-6.4,12.1-9.1c8.5-5.5,17.8-9.8,27.6-12.4
			c9.8-2.5,20.1-3.3,30.1-2.1c5,0.6,10,1.6,14.8,3.1c4.8,1.6,9.5,3.6,13.8,6.1c-4.4-2.5-9.1-4.4-13.9-5.9c-4.8-1.5-9.8-2.5-14.8-3
			c-10-1.1-20.2-0.3-30,2.3c-9.8,2.5-19.1,6.7-27.5,12.2c-4.2,2.7-8.3,5.8-12.1,9.1C197.8,387,194.2,390.6,190.8,394.3z"/>
	</g>
	<g>
		<g>
			<path class="st3" d="M165.4,357.5c5.5-3.6,11.3-6.7,17.4-9.3c6.1-2.6,12.4-4.6,18.8-6.1c12.8-3,26.2-3.8,39.3-2.3
				c13.1,1.6,25.9,5.5,37.7,11.4c5.9,3,11.5,6.4,16.8,10.3c5.3,3.9,10.2,8.3,14.8,13.1c-4.6-4.7-9.6-9-14.9-12.9
				c-5.3-3.9-11-7.3-16.8-10.2c-11.8-5.8-24.5-9.7-37.6-11.2c-13-1.6-26.4-0.8-39.2,2.1c-6.4,1.5-12.7,3.5-18.8,6
				C176.8,350.9,171,354,165.4,357.5z"/>
		</g>
		<g>
			<path class="st3" d="M188.8,234.6c2.9,2.1,5.8,4.1,8.6,6.3c2.8,2.2,5.7,4.3,8.4,6.5c2.7,2.3,5.5,4.4,8.2,6.8l4,3.5
				c1.3,1.2,2.6,2.4,4,3.6c10.5,9.6,20.4,19.7,29.7,30.5c9.3,10.8,17.8,22.2,25.7,34l2.9,4.4c1,1.5,1.9,3,2.8,4.5l2.8,4.5l2.7,4.6
				c1.8,3.1,3.5,6.2,5.2,9.3l5.1,9.3l-5.2-9.3c-1.7-3.1-3.5-6.2-5.3-9.2l-2.7-4.6l-2.8-4.5c-0.9-1.5-1.9-3-2.8-4.5l-2.9-4.4
				c-7.9-11.8-16.5-23.1-25.8-33.8c-9.2-10.8-19.1-21-29.6-30.6c-1.3-1.2-2.6-2.4-3.9-3.6l-4-3.5c-2.6-2.4-5.4-4.6-8.2-6.8
				c-2.7-2.3-5.6-4.4-8.3-6.6C194.5,238.7,191.7,236.7,188.8,234.6z"/>
		</g>
		<g>
			<path class="st3" d="M118.4,256.6c7.8,1.4,15.5,3,23.2,4.9c7.7,1.9,15.3,4,22.9,6.3c3.8,1.2,7.5,2.4,11.3,3.7
				c3.8,1.2,7.5,2.6,11.2,4c7.4,2.9,14.7,5.8,21.8,9.3l2.7,1.3l2.6,1.3c1.8,0.9,3.5,1.8,5.3,2.7c3.5,1.9,7,3.8,10.3,5.9
				c3.4,2,6.7,4.2,10,6.3c1.7,1.1,3.2,2.3,4.9,3.4l2.4,1.7c0.8,0.6,1.6,1.2,2.4,1.8l4.7,3.6l4.5,3.8c1.5,1.3,3,2.6,4.4,4l2.2,2
				c0.7,0.7,1.4,1.3,2.1,2.1l4.1,4.3c1.4,1.4,2.6,3,3.9,4.4l1.9,2.2c0.6,0.7,1.2,1.6,1.8,2.3l3.6,4.7L279,338
				c-0.6-0.8-1.2-1.6-1.9-2.3l-2-2.2c-1.3-1.5-2.6-3-4-4.4l-4.1-4.2c-0.7-0.7-1.4-1.4-2.1-2.1l-2.2-2c-1.4-1.3-2.9-2.7-4.4-4
				l-4.5-3.8l-4.7-3.6c-0.8-0.6-1.6-1.2-2.4-1.8l-2.4-1.7c-1.6-1.1-3.2-2.3-4.9-3.4c-3.3-2.1-6.6-4.3-10-6.3
				c-3.4-2.1-6.9-3.9-10.3-5.8c-1.7-0.9-3.5-1.8-5.3-2.7l-2.6-1.3l-2.7-1.3c-7.1-3.5-14.4-6.4-21.8-9.3c-3.7-1.4-7.4-2.8-11.1-4
				c-3.7-1.3-7.5-2.5-11.3-3.7c-7.5-2.3-15.2-4.5-22.8-6.4C133.9,259.8,126.2,258.1,118.4,256.6z"/>
		</g>
		<g>
			<path class="st3" d="M99.4,347.6c4.3-1.9,8.7-3.5,13.2-5c4.5-1.4,9-2.7,13.6-3.7c4.6-1,9.2-1.8,13.9-2.4c4.7-0.6,9.3-1,14-1.1
				c-4.7,0.3-9.3,0.8-14,1.5c-4.6,0.7-9.2,1.5-13.8,2.5c-4.6,1-9.1,2.2-13.6,3.6C108.2,344.4,103.8,345.9,99.4,347.6z"/>
		</g>
		<g>
			<path class="st3" d="M160.3,379c3.7-3.6,7.8-6.9,12-10c4.3-3,8.8-5.6,13.5-7.9c4.7-2.3,9.5-4.3,14.4-6c4.9-1.7,10-3.1,15-4.2
				c5.1-1.1,10.2-2,15.4-2.6c5.2-0.6,10.4-1,15.6-0.9c2.6,0,5.2,0.1,7.8,0.4c2.6,0.2,5.2,0.6,7.7,1.2c5.1,1.1,10,3,14.5,5.5
				c-4.6-2.5-9.5-4.3-14.6-5.3c-2.5-0.5-5.1-0.9-7.7-1.2c-2.6-0.3-5.2-0.3-7.8-0.4c-5.2,0-10.4,0.4-15.5,1
				c-5.2,0.6-10.3,1.5-15.4,2.6c-5.1,1.1-10.1,2.4-15,4.1c-4.9,1.7-9.8,3.6-14.4,5.9C176.6,366,167.9,371.8,160.3,379z"/>
		</g>
	</g>
	<g>
		<g>
			<path class="st3" d="M552.5,458.9c3.6,2.7,7.1,5.5,10.4,8.6c3.3,3,6.5,6.2,9.6,9.5c3,3.3,5.9,6.8,8.7,10.3
				c2.7,3.6,5.3,7.3,7.7,11.1c-2.5-3.7-5.2-7.3-8-10.9c-2.8-3.5-5.7-7-8.7-10.2c-3-3.3-6.2-6.5-9.5-9.6
				C559.4,464.7,556,461.7,552.5,458.9z"/>
		</g>
		<g>
			<path class="st3" d="M550.7,336.6c2.1-0.3,4.2-0.2,6.2,0.1c2.1,0.3,4.1,0.8,6.1,1.4c4,1.1,8,2.3,11.9,3.7
				c3.9,1.4,7.8,2.9,11.6,4.6c3.8,1.7,7.5,3.6,11.2,5.6c-3.7-1.8-7.5-3.6-11.3-5.2c-3.8-1.6-7.7-3.2-11.6-4.5
				c-3.9-1.4-7.9-2.6-11.9-3.8c-2-0.6-4-1.1-6-1.5C554.8,336.6,552.7,336.4,550.7,336.6z"/>
		</g>
	</g>
	<g>
		<g>
			<g>
				<path class="st3" d="M298.4,289.4c0.7,5.1,1.9,10.2,3.4,15.1c1.5,5,3.3,9.8,5.3,14.6c4,9.5,8.8,18.8,13.2,28.1
					c4.4,9.4,8.6,18.9,11.4,28.9c1.4,5,2.5,10.1,3.1,15.2c0.6,5.2,0.7,10.4,0.1,15.5c0.5-5.2,0.3-10.4-0.3-15.5
					c-0.6-5.1-1.8-10.2-3.2-15.2c-2.9-9.9-7.1-19.4-11.6-28.8c-4.4-9.4-9.1-18.6-13.1-28.2c-2-4.8-3.8-9.7-5.2-14.6
					C300.1,299.6,299,294.6,298.4,289.4z"/>
			</g>
			<g>
				<path class="st3" d="M306.7,284.1c0.3,5.3,1.3,10.5,2.7,15.5c1.4,5.1,3.2,10,5.2,14.9c4,9.7,8.8,19.1,12.9,28.8
					c4.1,9.7,7.4,19.8,9.5,30.1c1.1,5.2,1.9,10.4,2.5,15.6c0.5,5.2,0.8,10.5,0.9,15.8c-0.1-5.3-0.5-10.5-1.1-15.7
					c-0.6-5.2-1.5-10.4-2.6-15.6c-2.2-10.3-5.5-20.3-9.7-30c-4.1-9.7-8.8-19.1-12.8-28.9c-2-4.9-3.7-9.9-5.1-15
					C307.9,294.6,307,289.3,306.7,284.1z"/>
			</g>
			<g>
				<path class="st3" d="M373.7,268.5c0.3,5.7,0.1,11.4-0.4,17.1c-0.5,5.7-1.3,11.4-2.2,17c-1.9,11.3-4.5,22.4-6.7,33.6
					c-2.3,11.2-4.2,22.5-4.8,33.9c-0.3,5.7-0.3,11.4,0.3,17.1c0.2,1.4,0.3,2.8,0.5,4.3c0.2,1.4,0.4,2.8,0.6,4.2
					c0.5,2.8,1.2,5.6,2.5,8.2c-1.3-2.5-2-5.3-2.6-8.1c-0.3-1.4-0.5-2.8-0.7-4.2c-0.2-1.4-0.4-2.8-0.5-4.3
					c-0.6-5.7-0.6-11.4-0.4-17.1c0.5-11.4,2.4-22.8,4.7-34c2.3-11.2,4.9-22.3,6.9-33.6c1-5.6,1.8-11.3,2.3-17
					C373.6,279.9,373.9,274.2,373.7,268.5z"/>
			</g>
			<g>
				<path class="st3" d="M356.3,291.8c0.5,4.6,0.9,9.2,1.2,13.8c0.2,4.6,0.3,9.2,0.3,13.8c-0.1,9.2-0.7,18.4-1.8,27.5
					c-1.2,9.1-2.9,18.2-4.1,27.3c-0.6,4.6-1,9.1-1.2,13.7c-0.2,4.6-0.1,9.2,0.5,13.8c-0.6-4.6-0.8-9.2-0.7-13.8
					c0.1-4.6,0.5-9.2,1.1-13.8c1.1-9.1,2.7-18.2,3.9-27.3c1.2-9.1,1.9-18.3,2-27.5c0.1-4.6,0-9.2-0.2-13.8
					C357,301,356.7,296.4,356.3,291.8z"/>
			</g>
		</g>
		<g>
			<g>
				<path class="st3" d="M250.4,128.2c1.8,4.5,3.5,9,5,13.5c1.6,4.6,3,9.2,4.3,13.8c1.3,4.6,2.5,9.3,3.6,14c1.1,4.7,2,9.4,2.8,14.2
					c-1-4.7-2.1-9.4-3.2-14.1c-1.1-4.7-2.4-9.3-3.7-13.9c-1.3-4.6-2.7-9.2-4.2-13.8C253.6,137.3,252,132.7,250.4,128.2z"/>
			</g>
			<g>
				<path class="st3" d="M330.7,116.6c-0.4,4.2-0.7,8.5-1,12.8c-0.3,4.3-0.5,8.5-0.7,12.8c-0.2,4.3-0.3,8.5-0.3,12.8
					c0,4.3-0.1,8.5,0,12.8c-0.2-4.3-0.4-8.5-0.4-12.8c0-4.3,0.1-8.5,0.2-12.8c0.2-4.3,0.4-8.5,0.8-12.8
					C329.7,125.1,330.2,120.8,330.7,116.6z"/>
			</g>
		</g>
	</g>
	<path class="st5" d="M327.2,371.5c-0.8,6.5-1.9,13.7,1.4,19.4c4.3,7.5,16.1,9,22.1,2.9c6.1-6.1,5.4-16,3.9-24.4
		c-3.1-16.9-7.8-33.4-12.5-49.9c-1.8-6.2-4.8-18.7-12.6-20.2c-10.2-1.9-5.8,10.6-4.6,16.1C328.7,333.9,329.5,352.9,327.2,371.5z"/>
	<g>
		<path class="st6" d="M357.5,415.4c-0.1-24.5-3.7-49-10.6-72.5c-2-6.9-4.3-13.7-6.1-20.7c-9.1-34.6-6.6-72.2,7.1-105.3
			c-1-0.3-2.2,0.2-3.2-0.1c-10.2,24-14.7,50.5-13,76.5c0.6,8.8,1.8,17.6,3.4,26.3c1.6,9.1,3.5,18.1,5.7,27.1c2,8,4.2,15.9,5.6,24
			c2.6,14.5,2.9,29.4,0.8,43.9C351,416.3,353.8,417.1,357.5,415.4z"/>
		<g>
			<path class="st7" d="M339.8,251c-2.2,1.5-3.4,4.5-2.7,7c0.7,2.6,3.5,4.5,6.1,4c2.7-0.5,4.6-3,5.3-5.6
				C350,251.1,343.9,248.1,339.8,251z"/>
			<path class="st7" d="M329.2,261c-2.2,1.5-3.4,4.5-2.7,7c0.7,2.6,3.5,4.5,6.1,4c2.7-0.5,4.6-3,5.3-5.6
				C339.4,261.1,333.4,258.1,329.2,261z"/>
			<path class="st7" d="M337.1,239.2c-2,1.4-3.1,4-2.4,6.3c0.7,2.3,3.1,4,5.5,3.6c2.4-0.4,4.1-2.7,4.7-5
				C346.3,239.3,340.9,236.6,337.1,239.2z"/>
			<path class="st7" d="M346,243.3c-1,1.9-0.8,4.4,0.6,6c1.5,1.6,4.1,1.9,5.8,0.7c1.7-1.3,2.2-3.8,1.7-5.9
				C353.4,239.7,348,239.7,346,243.3z"/>
			<path class="st7" d="M349.6,203.6c-1,1.9-0.8,4.4,0.6,6c1.5,1.6,4.1,1.9,5.8,0.7c1.7-1.3,2.2-3.8,1.7-5.9
				C356.9,200,351.5,200,349.6,203.6z"/>
			<path class="st7" d="M348.1,254.1c-1,1.9-0.8,4.4,0.6,6s4.1,1.9,5.8,0.7c1.7-1.3,2.2-3.8,1.7-5.9
				C355.5,250.5,350.1,250.5,348.1,254.1z"/>
			<path class="st7" d="M341.4,262.7c-2.1,0.5-3.8,2.4-4,4.6c-0.2,2.1,1.4,4.3,3.5,4.7c2.1,0.4,4.3-1,5.5-2.8
				C349.1,265.6,345.4,261.6,341.4,262.7z"/>
			<path class="st7" d="M324.4,240.4c-1,1.9-0.8,4.4,0.6,6c1.5,1.6,4.1,1.9,5.8,0.7c1.7-1.3,2.2-3.8,1.7-5.9
				C331.7,236.7,326.3,236.8,324.4,240.4z"/>
			<path class="st7" d="M332.1,230.7c-1.9,0.9-3.3,3.1-3,5.2c0.2,2.1,2.2,4,4.3,4c2.2,0,4-1.8,4.9-3.8
				C340.2,232.1,335.8,228.9,332.1,230.7z"/>
			<path class="st7" d="M350,231.9c-1.6-1.4-4.1-1.8-6-0.7c-1.9,1.1-2.8,3.6-1.9,5.6c0.9,2,3.2,2.9,5.4,3
				C352,239.9,353.1,234.6,350,231.9z"/>
			<path class="st7" d="M362.2,245.8c-1.6-1.4-4.1-1.8-6-0.7c-1.9,1.1-2.8,3.6-1.9,5.6c0.9,2,3.2,2.9,5.4,3
				C364.2,253.7,365.3,248.4,362.2,245.8z"/>
			<path class="st7" d="M326,256.6c-1.6-1.4-4.1-1.8-6-0.7c-1.9,1.1-2.8,3.6-1.9,5.6c0.9,2,3.2,2.9,5.4,3
				C327.9,264.5,329.1,259.2,326,256.6z"/>
			<path class="st7" d="M339.7,274c-1.6-1.4-4.1-1.8-6-0.7c-1.9,1.1-2.8,3.6-1.9,5.6c0.9,2,3.2,2.9,5.4,3
				C341.6,282,342.8,276.7,339.7,274z"/>
			<path class="st7" d="M327.3,250.2c-1.4,1.9-1.6,4.8-0.3,6.8c1.4,2,4.3,2.8,6.4,1.7c2.1-1.2,3-3.9,2.9-6.3
				C336,247.4,330,246.5,327.3,250.2z"/>
			<path class="st7" d="M346.1,213.1c-1,1.9-0.8,4.4,0.6,6c1.5,1.6,4.1,1.9,5.8,0.7c1.7-1.3,2.2-3.8,1.7-5.9
				C353.4,209.5,348,209.5,346.1,213.1z"/>
			<path class="st7" d="M341.1,205.4c-1,1.9-0.8,4.4,0.6,6c1.5,1.6,4.1,1.9,5.8,0.7c1.7-1.3,2.2-3.8,1.7-5.9
				C348.4,201.8,343,201.8,341.1,205.4z"/>
		</g>
	</g>
	<path class="st2" d="M287.7,371.3c-5.6,0.4-10.8,3-15.8,5.5c-10.8,5.5-21.4,11.3-32,17.2c-25.4,14.3-51.6,31.2-63,57.8
		c-4.4,10.4-6.2,22.9-0.5,32.8c4,6.9,11,11.7,15.9,18c7.3,9.2,9.7,21.1,14.9,31.6c5.2,10.5,15.3,20.5,26.9,18.9
		c4.2-0.6,8-2.6,12.1-3.4c4.1-0.8,9.2,0.1,11.2,3.8c1,1.8,1.1,4,1.3,6.1c1.6,13.7,12.7,25.1,25.4,31c12.7,5.9,27,7.4,41,8.6
		c8.5,0.7,17.3,1.4,25.2-1.8c5-2,9.4-5.5,14.5-7.3c10.4-3.7,21.9,0,32.7,2.4c10.8,2.4,23.7,3.1,31.3-4.8c5.1-5.3,6.4-13.1,10.9-18.9
		c5.3-6.9,14.2-10,20.6-15.9c9.4-8.7,12.2-22.8,10.4-35.5c-1.8-12.7-7.7-24.6-13.4-36.2c-8.7-17.6-17.8-35.6-32.4-48.9
		c-19.8-18.1-47.3-25.2-73.9-28.3c-13.2-1.5-25-2.4-32.5-13.8C311.9,380.6,300.3,370.5,287.7,371.3z"/>
	<g>
		<g>
			<path class="st3" d="M358.7,412.7c2.2,6.8,3.2,13.9,4.3,20.9c0.3,1.8,0.5,3.5,0.7,5.3l0.6,5.3c0.4,3.5,0.7,7.1,1,10.6
				c1.1,14.2,1.3,28.5,0.5,42.7c-0.8,14.2-2.5,28.4-5.1,42.4c-1.3,7-2.8,14-4.6,20.9c-0.9,3.5-1.9,6.9-2.8,10.3
				c-1,3.4-2.1,6.8-3.2,10.2c1-3.4,2.1-6.8,3-10.2c0.9-3.4,1.9-6.9,2.7-10.3c1.7-6.9,3.2-13.9,4.5-20.9c2.5-14,4.2-28.2,4.9-42.4
				c0.8-14.2,0.7-28.5-0.4-42.7c-0.3-3.5-0.6-7.1-1-10.6l-0.6-5.3c-0.2-1.8-0.4-3.5-0.7-5.3C361.7,426.6,360.9,419.5,358.7,412.7z"
				/>
		</g>
		<g>
			<path class="st3" d="M339.4,419.1l-2.5,9.5l-2.3,9.5l-2.2,9.6l-2,9.6c-2.6,12.8-4.7,25.8-6.3,38.8c-1.7,13-2.9,26-3.6,39.1
				l-0.5,9.8l-0.3,9.8l-0.1,9.8l0.1,9.8l-0.2-9.8l0-9.8l0.2-9.8l0.4-9.8c0.7-13.1,1.8-26.2,3.4-39.2c1.7-13,3.8-25.9,6.5-38.8
				l2.1-9.6l2.2-9.6l2.4-9.5L339.4,419.1z"/>
		</g>
		<g>
			<path class="st3" d="M370.3,424.1l2.5,5.2l2.4,5.2l2.2,5.3l2.1,5.3c2.8,7.1,5.3,14.4,7.6,21.7c2.2,7.3,4.1,14.7,5.8,22.2l1.2,5.6
				l1.1,5.6l0.9,5.7l0.8,5.7l-0.9-5.7l-1-5.6l-1.1-5.6l-1.2-5.6c-1.7-7.5-3.7-14.8-5.9-22.1c-2.2-7.3-4.7-14.6-7.4-21.7l-2.1-5.3
				l-2.2-5.3l-2.3-5.3L370.3,424.1z"/>
		</g>
		<g>
			<path class="st3" d="M326.1,400.2l-7.5,3.6l-7.4,3.9l-7.3,4.1l-7.1,4.3c-9.4,6-18.3,12.6-26.8,19.8c-8.5,7.2-16.4,15-23.8,23.3
				l-5.4,6.3l-5.2,6.5l-5,6.7l-4.7,6.9l4.6-6.9l4.9-6.8l5.2-6.6l5.4-6.4c7.3-8.4,15.3-16.2,23.8-23.5c8.5-7.2,17.5-13.8,26.9-19.7
				l7.2-4.3l7.3-4.1l7.5-3.8L326.1,400.2z"/>
		</g>
		<g>
			<path class="st3" d="M322.1,395c-3.8-0.4-7.6,0-11.3,1c-3.7,0.9-7.3,2.2-10.8,3.5c-7.1,2.6-14.1,5.7-20.9,9.1
				c-6.8,3.4-13.4,7.1-19.9,11.2c-3.2,2.1-6.3,4.2-9.4,6.4c-3.1,2.2-6.1,4.5-9.1,6.9c2.9-2.4,5.9-4.8,9-7.1c3.1-2.3,6.2-4.4,9.4-6.5
				c6.4-4.1,13-8,19.8-11.4c6.8-3.4,13.9-6.4,21-9c3.6-1.3,7.2-2.6,10.9-3.4C314.4,394.8,318.3,394.4,322.1,395z"/>
		</g>
	</g>
	<g>
		<g>
			<path class="st8" d="M509.7,398.7c-7.8,1.7-15.5,4.1-22.5,7.9c-3,1.6-6,3.6-7.9,6.5c-3,4.8-2.4,11-0.5,16.3
				c1.8,5.3,4.7,10.3,6,15.8c2,8.9-0.5,18.1-2.1,27.1c-3.4,19.1-2.5,39.5,5.7,57.1c3.8,8.1,10.6,16.3,19.5,16.2
				c3.6,0,7-1.4,10.4-2.8c13.5-5.6,26.9-11.2,40.4-16.9c3.6-1.5,7.2-3,10.1-5.6c11.2-10.2,4.7-29.8,12.4-42.9
				c8.4-14.4,31.3-16.7,36.8-32.5c2.8-8.1-0.4-17.3-6.1-23.7c-11.4-12.9-31.8-18.7-48-22.3C546.1,395,527.5,394.9,509.7,398.7z"/>
			<path class="st9" d="M238.8,255.9c-6-8.9-12.6-17.9-21.7-23.6c-7.2-4.5-15.5-6.8-23.7-9c-4.6-1.2-9.7-2.4-13.9-0.3
				c-7.2,3.5-7.4,14-3.8,21.1c3.6,7.1,9.9,12.7,13.1,20c1.8,4.2,2.6,8.9,4.3,13.1c3.4,8.5,11,15.3,19.9,17.7
				c7.9,2.2,16.2,1.1,24.4,1.4c6.6,0.2,16.3,5.2,22.3,4.5c6.2-0.8,3.4-7,1-11.6C254.4,277.8,246.1,266.7,238.8,255.9z"/>
			<path class="st9" d="M210,370.2c-12.5,8.7-23,19.9-33.5,30.9c-6.7,7-14.2,14.5-23.8,16c-7.1,1.1-14.7-1.4-19.4-6.8
				c-4.7-5.4-6-13.6-2.8-20c2.1-4.3,5.9-7.5,9.7-10.4c25.9-19.9,58.1-31.7,90.7-33.1c8.1-0.4,26.9,2.9,10.4,9.4
				C230.3,360.7,220.1,363.2,210,370.2z"/>
			<path class="st10" d="M189.4,484.9c4.1,7.3,11.4,12.2,16.7,18.6c5.3,6.4,8.5,14.2,11.4,22c2.3,6.2,5,13.1,11.1,15.6
				c5.5,2.2,11.8,0,16.8-3.2c7.5-4.8,13.6-11.9,17.2-20c3.8-8.6,4.2-20.3-3.5-25.8c-6-4.2-14-2.9-21.4-2.6
				c-7.5,0.3-15.3-0.9-21.9-4.5c-6.3-3.4-11.4-9-13.5-16c-1.6-5.4,0.7-14.6-6.5-16.4C182.1,449.2,185.9,478.6,189.4,484.9z"/>
			<path class="st10" d="M348.7,562.2c-1.6,5.5-3.1,12.5,1.2,16.3c5.3,4.7,13.3,0.1,20.3-1.6c12.8-3.2,26.2,4.7,39.1,2.1
				c2.7-0.5,5.6-1.7,7.1-4c2.1-3.1,1.2-7.4-1-10.5c-2.2-3-5.4-5.1-8.4-7.3c-9.6-7.1-17.5-16.5-22.9-27.1
				c-6.3-12.4-9.2-26.2-14.1-39.2c-2.2-5.8-11.3-12.7-13.1-2.5c-0.5,2.5,1.5,5.5,1.9,8c0.6,4.2-0.1,8.8-0.5,13
				C357,527.4,353.8,545.1,348.7,562.2z"/>
		</g>
		<g>
			<path class="st11" d="M235.1,150.1c-6.2,3.5-13.6,4.9-19,9.5c-6,5-8.7,12.9-10.3,20.6c-0.3,1.7-0.6,3.6-0.2,5.3
				c0.8,3.4,4.2,5.4,7.2,7.1c4.7,2.7,9.5,5.4,14.2,8.1c3.7,2.1,8.6,4.2,12.1,1.6c3.8-3,2.3-9,0.2-13.4c-2-4.4-4.1-10.1-0.7-13.6
				c1.9-2,5-2.4,7.5-3.5c6.1-2.6,9.2-9.6,9.3-16.2c0-2.5-0.3-5.6-0.9-8.7c-1.2-5.7-8.7-7.5-12.3-3
				C240.3,146.2,238.2,148.4,235.1,150.1z"/>
			<path class="st12" d="M90,241.3c-4.6,11.1-4.8,24.2,0.5,35c2.5,5.1,6.2,9.8,7.1,15.4c0.7,4.3,0.3,9.9,4.3,11.8
				c2.2,1,4.9,0.2,7.1-0.9c11.3-5.9,17.2-20.6,13.2-32.7c-1.4-4.2-3.8-8.1-4.4-12.5c-0.7-6.2,2.4-12.1,5.6-17.4
				c2.3-3.8,4.7-7.6,5.6-12c1-4.3,0.2-9.3-3-12.3C113.3,204,93.6,232.5,90,241.3z"/>
			<path class="st11" d="M397.1,334.3c-0.7,1.9-1.4,4.3,0,5.8c2.1,2.3,5.8-0.1,7.7-2.5c6-7.6,10-16.5,14.5-25
				c6.7-12.5,14.7-24.4,23.8-35.3c3.3-4,26.1-23.5,13.9-28.5c-6-2.4-11.4,8.6-14,12.5c-6.8,10-14.7,18.9-21.8,28.7
				C411.3,303.6,403.2,318.6,397.1,334.3z"/>
			<path class="st11" d="M438.5,365.4c-6,4.5-12,9.8-14,17.1c4,3.4,10,1.9,14.9,0.1c18.3-6.4,36.6-12.7,55-19.1
				c4.4-1.5,8.8-3.1,12.4-5.9c6.1-4.8,8.3-14.1,1.9-19.8c-6.2-5.5-15.5-1.1-22.2,1.4C469.4,345.6,453.1,354.5,438.5,365.4z"/>
			<path class="st12" d="M330.8,540.2c-1.4,7.5-2.9,15.1-1.4,22.6c0.5,2.2,2,4.8,4.2,4.2c0.8-0.2,1.4-0.9,1.9-1.5
				c6.7-8.3,9.4-19.1,11.4-29.6c3.3-17.2,5.4-34.5,7.4-51.9c1.9-15.5,3.7-31.1,3.1-46.8c-0.3-8.4-9.3-17.7-13.7-6.5
				c-3.7,9.4-1.7,24.8-2.6,35C338.9,490.6,335.5,515.5,330.8,540.2z"/>
			<path class="st12" d="M413.3,480.8c5.1,11.5,9.2,23.7,16.9,33.7c3.6,4.7,9.4,9.1,14.8,6.9c4.6-1.9,6.2-7.5,6.7-12.4
				c1.2-13.7-2.5-27.5-8.9-39.6c-5.6-10.5-13.2-19.8-22.3-27.4c-7.4-6.2-22.2-17.7-32.5-17.5c-13.4,0.2,2.8,17.1,5.8,21.5
				C401.3,457,407.9,468.7,413.3,480.8z"/>
		</g>
	</g>
</g>
</svg>
