<?xml version="1.0" encoding="utf-8"?>
<!-- Generator: Adobe Illustrator 23.1.0, SVG Export Plug-In . SVG Version: 6.00 Build 0)  -->
<svg version="1.1" id="Capa_1" xmlns="http://www.w3.org/2000/svg" xmlns:xlink="http://www.w3.org/1999/xlink" x="0px" y="0px"
	 viewBox="0 0 700 700" style="enable-background:new 0 0 700 700;" xml:space="preserve">
<style type="text/css">
	.st0{fill:#EDB384;}
	.st1{fill:#33515A;}
	.st2{fill:#EC7057;}
	.st3{fill:#C63C4C;}
	.st4{opacity:0.32;}
	.st5{opacity:0.42;}
</style>
<g>
	<g>
		<g>
			<path class="st0" d="M241.8,380.8c-29.8,32.7-53.4,70.9-69.2,112.1c-3.5,9-6.6,18.3-7.8,27.9c-1.3,10.3-0.3,20.6,0.6,30.9
				c0.7,7.7,1.5,15.8,6.1,22c1.7,2.3,3.9,4.3,6.6,5.2c2.6,0.8,6.7,1,9.3,0.6c35.6-5.4,68.2-22,94.9-46.2c24.2-22,43.2-50.3,60-78.4
				c8.1,25.7,23,48.6,38.3,70.7c6,8.7,12.1,17.3,19.5,24.8c23.3,23.9,59,35.1,91.8,28.9c3-0.6,6.4-1.6,7.6-4.5
				c0.7-1.6,0.4-3.5,0.2-5.3c-5.9-45.7,8.7-94-6.7-137.4c-6.7-18.7-18.4-34.2-30.1-50.3c36.4,7.6,75.2,6.9,110-6.3
				c34.8-13.2,65.2-39.8,79-74.4c2-5.1,3.7-10.7,2.4-16c-1.4-5.9-6.2-10.4-10.8-14.5c-22.6-20.1-45.6-40.5-72.6-54
				c-7.7-3.9-15.7-7.1-24.1-9.2c-19.4-4.8-40.1-3.9-60-2c4.2-45-15.6-91.5-51-119.7c-1.9-1.5-4-3-6.4-3.5c-2.7-0.5-5.4,0.3-8,1.2
				c-21.8,7.1-43.7,14.3-65.5,21.4c-7.2,2.3-14.4,4.7-20.8,8.6c-5.9,3.5-11.1,8.3-15.9,13.2c-8.9,8.9-17.2,18.6-23.7,29.4
				c-16.9,28-20.9,61.7-24.5,94.2c-47.8-21.7-101.5-29.6-152-15.2c-26.8,7.7-51.6,22.3-71.3,42.1c-0.7,0.8-1.5,1.5-1.9,2.5
				c-0.8,2.1,0.3,4.5,1.4,6.5c11.9,21.5,25.9,42,43.2,59.3c17.3,17.4,38.2,31.6,61.5,39.2c13.4,4.4,27.4,6.5,41.4,7.3
				C209.5,392.9,229.8,391.9,241.8,380.8z"/>
			<g>
				<g>
					<g>
						<g>
							<path class="st1" d="M323.5,362.8l0.3,7.7l-0.2,7.7l-0.7,7.6l-1.2,7.6c-1.9,10.1-5,19.9-9.2,29.2c-4.3,9.3-9.7,18.1-16,26.1
								l-5,5.9l-5.3,5.5l-5.7,5.2l-6,4.8l5.9-4.9l5.6-5.2l5.3-5.6l4.9-5.9c6.3-8,11.6-16.8,15.8-26.1c4.3-9.3,7.4-19,9.4-29.1
								l1.2-7.6l0.7-7.6l0.3-7.7L323.5,362.8z"/>
						</g>
						<g>
							<path class="st1" d="M324.3,353.7l-0.6,5.7l-0.8,5.7l-1.1,5.7l-1.3,5.6c-1.9,7.5-4.3,14.8-7.2,21.9c-3,7.1-6.4,14-10.3,20.6
								l-3,4.9l-3.2,4.8l-3.4,4.6l-3.6,4.5l3.5-4.6l3.3-4.7l3.2-4.8l3-4.9c3.9-6.6,7.3-13.5,10.2-20.6c2.9-7.1,5.4-14.4,7.3-21.8
								l1.3-5.6l1.1-5.6l1-5.7L324.3,353.7z"/>
						</g>
						<g>
							<path class="st1" d="M321.5,331.1c-2.7,3.2-5.2,6.6-7.5,10.1c-2.3,3.5-4.4,7.1-6.3,10.8c-2,3.7-3.8,7.5-5.5,11.3l-5.2,11.5
								c1.6-3.9,3.1-7.8,4.8-11.6c1.7-3.8,3.5-7.6,5.4-11.4c2-3.7,4.1-7.4,6.4-10.8C316,337.5,318.6,334.2,321.5,331.1z"/>
						</g>
						<g>
							<path class="st1" d="M322.8,410.4l-1.4,6.9l-1.8,6.8l-2.3,6.7l-2.7,6.5c-3.9,8.6-8.8,16.7-14.5,24.2
								c-5.7,7.5-12.1,14.4-19.1,20.8l-5.3,4.7l-5.5,4.4l-5.7,4.2l-5.8,4l5.7-4.1l5.6-4.3l5.4-4.5l5.3-4.7
								c6.9-6.4,13.3-13.3,18.9-20.8c5.7-7.5,10.7-15.5,14.6-24l2.8-6.5l2.4-6.6l1.9-6.8L322.8,410.4z"/>
						</g>
					</g>
					<g>
						<g>
							<path class="st1" d="M322.8,312.9l-7.4,3.2l-7.5,2.8l-7.6,2.4l-7.7,2.1c-10.4,2.5-21,4.1-31.7,4.7c-10.7,0.5-21.4,0.1-32-1.3
								l-7.9-1.2l-7.9-1.6l-7.8-2l-7.6-2.4l7.7,2.3l7.8,1.9l7.9,1.6l7.9,1.2c10.6,1.4,21.3,1.7,32,1.1c10.7-0.5,21.3-2.1,31.6-4.5
								l7.7-2l7.6-2.4l7.5-2.7L322.8,312.9z"/>
						</g>
						<g>
							<path class="st1" d="M301.3,323.9c-3.4,3-7.2,5.4-11.3,7.2c-4.1,1.8-8.4,3.2-12.8,4.2c-4.4,1-8.9,1.7-13.3,2.1
								c-4.5,0.5-9,0.9-13.5,1c-9,0.3-18,0.1-27-1.1c-8.9-1.1-17.7-3.3-26.1-6.5c4.2,1.5,8.5,2.8,12.9,3.8c4.4,1,8.8,1.8,13.3,2.4
								c8.9,1.1,17.9,1.3,26.9,0.9c9-0.4,18-1.1,26.7-3C285.8,333.1,294.4,329.8,301.3,323.9z"/>
						</g>
						<g>
							<path class="st1" d="M322.8,312.2l-8.1-0.2l-8.1-0.4l-8.1-0.6l-8.1-0.7c-10.8-1.1-21.5-2.5-32.2-4.4
								c-10.7-1.9-21.3-4.3-31.7-7l-7.8-2.1l-7.8-2.3L203,292l-7.7-2.6l7.7,2.5l7.8,2.4l7.8,2.3l7.8,2.1c10.5,2.7,21.1,5,31.7,6.9
								c10.7,1.9,21.4,3.5,32.2,4.6l8.1,0.8l8.1,0.6l8.1,0.5L322.8,312.2z"/>
						</g>
					</g>
					<g>
						<g>
							<path class="st1" d="M483.2,349.5l-6.7-0.7l-6.7-0.9l-6.6-1.2l-6.6-1.4c-8.7-2-17.4-4.5-25.8-7.6
								c-8.4-3.1-16.7-6.7-24.6-10.8l-5.9-3.2l-5.8-3.4l-5.7-3.6l-5.6-3.7l5.7,3.6l5.8,3.5l5.8,3.3l5.9,3.1c8,4,16.2,7.6,24.7,10.6
								c8.4,3.1,17,5.7,25.7,7.7l6.6,1.4l6.6,1.2l6.6,1.1L483.2,349.5z"/>
						</g>
						<g>
							<path class="st1" d="M450.1,356.3l-5.5-1.5l-5.5-1.7l-5.4-1.9l-5.3-2c-7.1-2.8-14-6.1-20.7-9.7c-6.7-3.7-13.2-7.7-19.4-12.2
								l-4.6-3.4l-4.5-3.5l-4.4-3.7l-4.3-3.8l4.4,3.7l4.5,3.6l4.5,3.5l4.6,3.3c6.3,4.4,12.8,8.4,19.5,12c6.7,3.7,13.6,7,20.6,9.8
								l5.3,2.1l5.4,1.9l5.4,1.8L450.1,356.3z"/>
						</g>
					</g>
					<g>
						<g>
							<path class="st1" d="M387.9,386.6l-3.6-3.3l-3.5-3.4l-3.4-3.5l-3.3-3.6c-4.3-4.8-8.3-9.9-12.1-15.1
								c-3.7-5.3-7.2-10.7-10.3-16.4l-2.3-4.3l-2.2-4.3l-2-4.4l-1.9-4.4l2,4.4l2.2,4.3l2.2,4.3l2.3,4.2c3.2,5.6,6.7,11,10.4,16.2
								c3.7,5.3,7.7,10.3,11.9,15.2l3.2,3.6l3.3,3.5l3.4,3.5L387.9,386.6z"/>
						</g>
						<g>
							<path class="st1" d="M394.5,420.4l-4.7-5.3l-4.6-5.5l-4.4-5.6l-4.2-5.8c-5.5-7.8-10.5-15.9-15.1-24.3
								c-4.5-8.4-8.5-17.1-12-25.9l-2.5-6.7l-2.3-6.8l-2.1-6.8l-1.9-6.9l2,6.9l2.2,6.8l2.4,6.7l2.5,6.7c3.5,8.8,7.6,17.5,12.1,25.8
								c4.5,8.4,9.5,16.5,14.9,24.3l4.2,5.8l4.3,5.7l4.5,5.6L394.5,420.4z"/>
						</g>
						<g>
							<path class="st1" d="M438.4,422.7l-3.8-6.4l-4-6.3l-4.1-6.2l-4.3-6.1c-5.8-8-12-15.7-18.6-23.1c-6.6-7.4-13.5-14.5-20.8-21.2
								l-5.5-5l-5.7-4.8l-5.8-4.7l-5.9-4.5l6,4.4l5.8,4.6l5.7,4.8l5.6,4.9c7.3,6.7,14.3,13.7,20.9,21.1c6.6,7.4,12.7,15.2,18.5,23.3
								l4.2,6.1l4.1,6.2l3.9,6.3L438.4,422.7z"/>
						</g>
					</g>
					<g>
						<path class="st1" d="M341.1,309.1l6.5-3.6l6.4-3.8l6.3-3.9l6.2-4.1c8.2-5.6,16-11.6,23.6-18c7.6-6.4,14.8-13.1,21.7-20.2
							l5.1-5.4l4.9-5.5l4.8-5.6l4.7-5.8l-4.6,5.8l-4.7,5.7l-4.9,5.6l-5.1,5.4c-6.8,7.2-14.1,14-21.6,20.4
							c-7.6,6.4-15.5,12.3-23.7,17.9l-6.2,4.1l-6.3,3.9l-6.4,3.7L341.1,309.1z"/>
					</g>
					<g>
						<path class="st1" d="M366,287.8l4.2-4l4.1-4.1l4-4.2l3.9-4.3c5.2-5.8,10-11.8,14.5-18.1c4.6-6.3,8.8-12.7,12.7-19.4l2.9-5.1
							l2.7-5.1l2.6-5.2l2.5-5.3l-2.4,5.3l-2.5,5.2l-2.7,5.2l-2.8,5.1c-3.9,6.7-8.1,13.3-12.6,19.6c-4.6,6.3-9.5,12.3-14.7,18.1
							l-4,4.3l-4.1,4.2l-4.2,4L366,287.8z"/>
					</g>
				</g>
				<g>
					<g>
						<path class="st2" d="M108.1,238.7c75.1-4.6,149.2,24,211.6,66.1c3.8,2.6,8,5.3,12.6,5.2c-0.1-8.8-6.1-16.3-12.2-22.5
							c-20.2-20.8-45.2-36.8-72.4-46.6C247.5,240.8,163.6,211.3,108.1,238.7z"/>
						<path class="st2" d="M335.3,309.4c10.3-4.8,22.1-4.4,33.1-7.2c11.3-2.9,21.3-9,31.2-15.2c15.3-9.7,30.6-19.8,42.6-33.4
							c14.8-16.8,23.8-38.3,27.7-60.3c3.9-22.1,2.7-44.8-0.9-66.9c5.8,7.9,10.4,21.2,13.6,31.8c3.6,12,5.3,22.7,4.7,35.2
							c-0.4,8.1,0,15.5-2.8,23.1c-14.8,41.4-48.7,75.5-89.9,90.6C375.6,314,354,317,335.3,309.4z"/>
						<path class="st2" d="M467,382.8c-3.8-1.1-7.6-2.3-11.4-3.5c-38.4-12.4-78-26.7-106.6-55.1c-4.2-4.2-8.2-8.8-10.3-14.3
							c4.3,2.8,8.5,5.6,12.8,8.4c5.7,3.7,11.3,7.5,17.1,11.2c18,11.6,36.6,22.4,56.5,30.3c6.2,2.5,12.6,4.4,18.9,6.8
							c43.9,16.6,99,11.4,129,9.1C572.8,375.6,530.3,394,467,382.8z"/>
						<path class="st2" d="M344.1,460.2c-14.6-46.2-19.2-94.6-15.6-142.9c0.1-1.4,0.3-3,1.2-4.1c0.9-1.1,3-1.3,3.7-0.1
							c0.3,0.4,0.3,1,0.3,1.5c1.3,18.5,14.2,146.1,73.9,242.8C407.7,557.4,367.8,521.4,344.1,460.2z"/>
						<path class="st2" d="M223,403.9c11.6-18,24.8-28.9,40.6-44.3c3.8-3.7,12.8-10.6,16.6-14.2c14-13.7,28.4-27.6,46.2-35.8
							c2.9,3.7,0,7.9-2.6,11.9c-15.2,23.1-35.6,41.6-52.5,63.5c-4.6,5.9-9.2,11.8-13.5,17.9c-23,32.9-36.6,75.5-56.6,107.6
							c-7.4,11.8-22.3,20.7-35.9,23.3C165.3,533.6,156.4,495.8,223,403.9z"/>
					</g>
					<g>
						<path class="st3" d="M310.9,253.4c0.2,3.3,0.5,6.6,0.7,9.9c0.2,2.2,0.3,4.4,1.4,6.3c1,1.9,3.1,3.4,5.3,3
							c3.1-0.6,4.6-4.1,7.6-5c1.2,0.3,1,1.4,1.1,1.8c1.6,8.4,9.9,12.3,17.6,8.6c0.8-0.4,1.5-0.8,2.2-1.2c4.1-2.5,7.9-5.7,12.1-7.9
							c2.7-1.4,6,0.9,5.5,3.9c-0.6,3.7-2.2,7.2-4.3,10.3c-3.2,4.8-7.6,8.7-12,12.4c-4.7,4.1-10.1,8.4-16.4,8.5
							c-3.3-7.1-8.2-13.6-14.1-18.8c-4.7-4.2-10.4-8-12.3-14.1c-1.6-5.3,0.2-11,2.6-16.1C308.6,253.9,309.9,252.6,310.9,253.4z"/>
						<path class="st3" d="M338.6,334.2c-2.6-6.6-4.4-13.5-5.2-20.6c1.7-1.8,4.8-1.8,7.1-0.7c2.3,1.2,3.9,3.2,5.6,5.1
							c12.4,14.4,28.1,25.8,45.6,33.1c-3,1.8-6.7,0.2-10.2-0.5c-16.9-3.6-39.5-27.2-41.6-27.6c-3.1-0.1,2.8,7.7,3,11.9
							c0,0.5,0,1-0.3,1.4c-0.5,0.7-1.7,0.7-2.5,0.2C339.3,336,338.9,335.1,338.6,334.2z"/>
						<path class="st3" d="M361.5,313.1c2.3-0.2,4.6-0.6,6.9-0.9c6.2-1,12.4-2.1,18.5-3.2c0.8-0.2,1.6-0.3,2.5-0.2
							c0.8,0.1,1.6,0.6,1.9,1.4c0.3,0.8,0,1.7-0.5,2.4c-1,1.5-2.6,2.5-4.2,3.2c-6.8,3-14.5,2.3-21.9,2.3c-0.3,0-0.7,0-0.9,0.2
							c-0.5,0.3-0.4,1-0.2,1.6c0.2,0.5,0.5,1.1,0.4,1.6c-0.2,0.9-1.4,1.3-2.3,1.1c-0.9-0.2-1.8-0.7-2.8-0.7c-0.7,0-1.3,0.3-1.9,0.2
							c-0.4,0-0.8-0.2-1.2-0.4c-5.4-2.5-11-5-15.3-9.2c-0.6-0.6-1.2-1.4-0.8-2.1C346.7,312.9,354.2,313.8,361.5,313.1z"/>
						<path class="st3" d="M333.5,301.5c2.7,1.5,5.4,2.9,8.1,4.4c0.3,0.2,0.6,0.3,0.8,0.6c0.3,0.4,0.4,0.9,0.5,1.5
							c0.1,1.4,0.3,2.7,0.4,4.1c0.2,1.5,0.3,3-0.1,4.5c-0.4,1.5-1.5,2.8-2.9,3.1c-2.2,0.4-4.1-1.6-6.1-2.6c-2-1-4.5-0.9-6.5,0.1
							c-0.5,0.3-1.1,0.7-1.7,0.6c-0.7-0.1-1.1-0.8-1.4-1.5c-0.8-1.8-1.7-3.6-1.8-5.5s0.8-4.1,2.7-4.8c1.4-0.6,3.4-0.3,4.1-1.7
							c0.6-1.1,0-2.7,1-3.5c0.4-0.3,1-0.4,1.5-0.4C335.4,300.4,332,298.5,333.5,301.5z"/>
					</g>
				</g>
			</g>
		</g>
	</g>
	<g>
		<g class="st4">
			<path class="st0" d="M340.2,142.8c-13.7,7.3-25.3,18.4-33.4,31.7c-5.8,9.6-9.8,20.7-8.4,31.8c1.4,11.1,9.3,21.8,20.2,24
				c7.9,1.6,16.2-1.3,22.9-5.9c6.7-4.5,12.1-10.6,17.9-16.3c11.6-11.3,24.7-21.1,35.7-33c9.4-10.3,33.7-43.7,11.2-52.7
				c-9-3.6-18.7,0.1-27,3.7C366.4,131.9,352.6,136.1,340.2,142.8z"/>
			<path class="st0" d="M189.5,550.6c-1.5,3.1-2.5,7.3,0,9.7c1.7,1.7,4.4,1.7,6.8,1.5c9.7-1,18.7-5.6,26.9-10.8
				c6.5-4.1,12.8-8.7,16.9-15.2c7.9-12.4-1.3-39.1-17.8-26.9c-5.9,4.4-10,13.1-15,18.6C200.9,534.8,193.9,541.7,189.5,550.6z"/>
			<path class="st0" d="M393.9,523.1c9.2,17.5,25.4,32.9,45,34.5c2.9,0.2,6,0.1,8.2-1.8c1.5-1.3,2.3-3.2,2.7-5.2
				c2.3-9.7-2.4-19.4-4.8-29.1c-2.6-10.2-2.7-20.9-5.3-31.1c-3.8-15-13.1-28.6-25.7-37.6c-14.3-10.1-39.6-8.6-38.9,13.9
				C375.6,484.2,385.8,507.9,393.9,523.1z"/>
			<path class="st0" d="M562,358.5c10.5-3.3,20.6-8.6,28.1-16.7c7.5-8.1,12-19.2,10.9-30.2c-0.2-1.9-0.6-3.8-1.7-5.3
				c-2.1-2.9-6.2-3.4-9.8-3.7c-10.2-0.9-20.4-2.1-30.4-4.3c-12.5-2.7-24.8-6.7-37.5-8.4c-21.5-2.9-55.6,5.8-54.1,33.8
				c1.1,22,34.6,33.9,52.2,37.1C533.7,363.3,548.4,362.7,562,358.5z"/>
			<path class="st0" d="M144.5,266.7c5.9,0.4,12.3,1.3,16.7,5.3c4.2,3.7,6,9.5,6.3,15.2c0.2,4-0.3,8.1-2,11.7
				c-5.1,11-19.3,14.7-31.4,13.5s-23.8-5.9-35.9-6.1c-8-0.1-20.2,2.5-25-6c-3.5-6.3,0-14.3,5-18.6
				C93.9,267.9,124.8,265.5,144.5,266.7z"/>
		</g>
		<g class="st5">
			<path class="st0" d="M403.6,269.8c2.8-3.6,5.5-7.5,6.7-12c1.2-4.4,0.8-9.5-2-13.2c-4-5-11.6-5.8-17.6-3.5c-6,2.3-10.7,7-15,11.6
				c-12.1,12.8-23.6,26.4-38.3,36.1c-3.3,2.2-6.8,4.2-9.4,7.2c-6.7,7.7-2.2,15.9,7.1,15c8.5-0.8,18.3-4.9,26-8.4
				C377.6,295.4,392.4,284,403.6,269.8z"/>
			<path class="st0" d="M278.5,381.1c-7.8,12.3-11.8,26.8-11.5,41.3c0.1,5,1.1,10.5,5.1,13.4c4.3,3,10.3,1.6,14.9-1.1
				c5.6-3.3,10.2-8.4,13-14.3c2.3-5.1,3.3-10.6,4.3-16.1c1.3-7.4,14.4-68.1,10.3-69.2c-3.9-1.1-13.2,17.5-15.8,20.8
				C292,364.2,284.3,371.9,278.5,381.1z"/>
			<path class="st0" d="M258.5,297.5c-3.3-0.4-6.7-0.7-9.8,0.3c-3.5,1.1-6.5,3.5-9.5,5.6c-5.5,3.8-11.5,6.7-17,10.4
				c-8,5.5-14.9,13.4-17.1,22.9c-2.2,9.5,1.1,20.6,9.4,25.7c9.9,6.1,22.8,2.3,33.2-2.9c8.9-4.5,17.4-9.9,25.8-15.3
				c6.5-4.1,12.9-8.3,19.4-12.4C320.2,314.2,272.8,299.4,258.5,297.5z"/>
			<path class="st0" d="M351.6,332.5c-1.7,1.8-1.4,4.8,0,6.8c1.4,2,3.6,3.3,5.7,4.5c12.9,7.4,26.4,15.1,41.3,15.8
				c9.3,0.4,20.8-3,24-12.8c2.7-8.2-2.1-19.7-10.3-23c-7.1-2.9-15.9,0.1-22.9,1.8C376.9,328.5,364.4,330.9,351.6,332.5z"/>
		</g>
	</g>
</g>
</svg>
